<?xml version="1.0" encoding="UTF-8"?>
<svg width="273px" height="44px" viewBox="0 0 273 44" version="1.1" xmlns="http://www.w3.org/2000/svg" xmlns:xlink="http://www.w3.org/1999/xlink">
    <defs></defs>
    <g id="Page-2" stroke="none" stroke-width="1" fill="none" fill-rule="evenodd">
        <path d="M254.9553,19.0494108 C255.251432,18.9626507 255.569949,18.9198943 255.839884,18.7821667 C259.054466,17.1404772 262.693468,16.0767806 264.499015,12.4990342 C264.626819,12.2461532 264.66116,11.945837 264.738631,11.6674716 C264.429664,11.6001624 264.047664,11.382302 263.82369,11.4910346 C262.655242,12.0573595 261.427878,12.5765985 260.406216,13.355499 C258.570603,14.7551489 256.867038,16.3274561 254.970474,17.9395565 C254.965407,18.3095911 254.96059,18.679652 254.9553,19.0494108 Z M271.54626,26.9125978 C271.614785,27.1492589 271.412854,27.547826 271.217069,27.7630178 C269.954311,29.1521967 268.821882,30.7327846 267.335585,31.8278637 C265.111146,33.4660862 262.880131,35.1548609 260.122626,35.9686592 C258.195885,36.5373241 256.415989,37.613409 254.483435,38.1509189 C252.321013,38.7523667 250.067914,39.0517176 247.840129,39.388817 C245.995339,39.667723 243.672735,38.09936 242.570256,36.0998525 C241.961564,34.995865 241.783001,33.839143 241.959252,32.6593827 C242.264931,30.6132551 242.600043,28.5608812 243.110614,26.5587548 C243.732653,24.1205334 245.286953,22.1190577 246.569664,20.0044727 C247.055023,19.205302 247.679074,18.4507475 248.37459,17.8256278 C250.858682,15.5927086 253.242225,13.1972583 255.96563,11.2956893 C258.638595,9.42971245 261.718467,8.15705301 264.546981,6.49952429 C266.892091,5.125405 269.2,5.66634815 271.543365,6.31905802 C271.822453,6.39685792 272.040867,6.69168118 272.34365,6.95473081 C272.390743,7.10709956 272.342469,7.21814359 272.379008,7.26918832 C273.606961,8.99714276 272.210253,10.2437562 271.381595,11.3430814 C270.111498,13.0278418 268.576938,14.55329 266.975117,15.9381333 C264.692531,17.9110248 262.054101,19.3739668 259.332088,20.6834814 C258.189655,21.2328511 257.139472,21.9708894 256.012866,22.5570104 C255.470514,22.8392727 254.861385,23.053176 254.259477,23.1479341 C253.126263,23.326191 252.570987,23.897137 252.294429,25.0393446 C251.951372,26.458799 251.812246,27.8257254 252.131205,29.2582161 C252.571325,31.2335443 253.698924,32.6217824 255.553459,33.39098 C256.898835,33.9488941 258.018336,33.3895413 259.31056,32.8632357 C261.148102,32.1153103 262.80057,31.1732514 264.193402,29.8434335 C265.714478,28.3910349 267.018584,26.7141403 268.482673,25.1987031 C269.502085,24.1434076 270.602623,23.1592415 271.738229,22.2305093 C271.957264,22.0510821 272.506398,22.275907 272.903494,22.3141094 C272.853158,22.6801433 272.93998,23.2062453 272.730287,23.3856448 C271.608996,24.3439013 271.122014,25.4395066 271.54626,26.9125978 Z M166.960671,16.6171685 C168.163946,15.5801881 169.550788,14.5163068 169.564859,12.6604061 C169.574191,11.4259948 169.563182,10.1833871 169.432978,8.9580384 C169.357479,8.24254198 168.629399,7.9310054 168.112114,8.2701749 C167.234544,8.84536332 166.378164,9.55757657 165.752312,10.3917097 C164.049397,12.661549 162.801233,15.1967793 161.69467,17.9771085 C161.828179,19.1662023 162.341322,19.4788765 163.409109,18.7967084 C164.581129,18.0474947 165.922759,17.5122459 166.960671,16.6171685 Z M176.361343,29.1475785 C173.287224,30.8242257 170.186017,32.4631904 167.016469,33.9478056 C165.383355,34.7129259 163.593368,35.4623156 161.842146,35.5450732 C160.673907,35.6002494 159.947459,36.1378063 159.007361,36.4312742 C158.052652,36.7292647 156.912017,36.5073974 155.862202,36.410941 C153.233254,36.1697153 151.570504,34.3155368 150.852508,31.691287 C150.32538,29.7656301 149.944118,27.8883727 150.28114,25.9475211 C150.614369,24.0307564 150.948037,22.0665811 151.66166,20.2748665 C152.645961,17.8027779 153.402305,15.1843015 155.144785,13.0688164 C155.997855,12.0326401 156.873017,11.0144364 157.80713,9.93250556 C159.162231,8.9112304 160.356069,7.77430558 161.755127,7.01689602 C164.403325,5.58350527 167.137286,4.29241166 169.901037,3.0925472 C171.313429,2.47966687 172.842211,2.15240127 174.453202,2.50322029 C175.182677,2.6621834 175.980835,2.47269154 176.741122,2.53063949 C178.102655,2.63461576 179.024992,3.63172253 178.94555,4.99760145 C178.859766,6.48145594 178.788966,7.90680698 179.199537,9.40193676 C179.58769,10.8149425 178.514053,12.0715313 177.641593,12.9751634 C175.133551,15.5728509 172.427455,17.9990216 169.173837,19.6686669 C166.911491,20.8293467 164.580531,21.8550853 162.298587,22.97887 C162.006288,23.1228296 161.679606,23.4618378 161.616185,23.7626317 C161.260055,25.4457635 161.751468,27.0435466 162.645005,28.391533 C163.957543,30.3714677 164.924944,30.3994361 167.245245,29.4414905 C169.698294,28.4285841 172.091729,27.2647694 174.483521,26.1093648 C176.325378,25.2195224 178.12964,24.250252 179.941158,23.2984047 C181.424837,22.5188403 182.956142,22.443765 184.474682,23.0809674 C184.623875,23.1433477 184.624554,24.2849073 184.3878,24.431171 C181.749857,26.0648068 179.085194,27.662061 176.361343,29.1475785 Z M68.9642146,13.8947682 C70.9558776,12.2088563 73.3690799,10.9097975 74.2960162,8.22695892 C74.4067787,7.90564543 74.4517831,7.56151738 74.5272617,7.22766035 C74.1004758,7.23657093 73.6202548,7.12223289 73.2588396,7.28013226 C72.5344587,7.5962729 71.874949,8.06134986 71.0506666,8.57625485 C70.109894,10.175472 69.163142,11.7715363 68.2402551,13.380711 C68.1691063,13.5052538 68.2210788,13.8537687 68.2879669,13.8754398 C68.4991046,13.9440784 68.8308967,14.0079806 68.9642146,13.8947682 Z M86.929958,23.8133456 C85.5430965,25.0887612 84.3341057,26.461125 82.883817,27.4946095 C80.1942112,29.4108378 77.3820052,31.1581786 74.5848732,32.9182107 C72.9029625,33.9770794 71.2049415,35.035517 69.4182704,35.8950622 C67.7129585,36.7154493 65.8921189,37.3020604 64.1046776,37.9431727 C63.2702431,38.2424453 62.3856029,38.6495296 61.5400911,38.6146827 C60.1421268,38.5571109 58.6632949,38.406728 57.3926658,37.8773694 C56.0419932,37.3146072 55.6525548,35.8345724 55.3197673,34.4543959 C55.0480964,33.3285291 54.4747537,32.238859 54.4050373,31.1104901 C54.3215408,29.7577772 54.5897951,28.3751409 54.7832844,27.0169574 C54.9072326,26.1474898 55.1339534,25.2873094 55.3827263,24.443078 C55.7152244,23.3138181 56.119985,22.205532 56.4813934,21.0846116 C56.868203,19.885331 57.2018962,18.6678462 57.6280768,17.4830532 C58.4035474,15.3262621 59.1847387,13.1991017 60.567808,11.2896883 C61.7943041,9.59706371 62.8916065,7.83911217 64.671435,6.66760168 C66.4811153,5.47625763 68.3045832,4.30504251 70.1413264,3.1564268 C70.8770249,2.69658089 71.6652063,2.3210093 72.4285854,1.90521883 C74.5084812,0.772819584 76.6395916,0.0153606554 79.1029748,0.289923322 C80.3282998,0.426535495 81.6058229,0.00647241424 82.8605731,2.03544993e-05 C83.8877447,-0.00510817378 84.5819989,0.959695905 84.4892854,1.99551618 C84.3708093,3.31968044 84.0434591,4.5128414 83.4056356,5.75869163 C81.7837402,8.92686209 79.8380808,11.7770199 76.9201956,13.8333346 C75.5369006,14.8082286 73.9547728,15.4989399 72.4754529,16.340303 C72.0517915,16.5812727 71.7035004,16.9697578 71.265391,17.1680629 C70.2763303,17.615163 69.2352155,17.9474898 68.2473642,18.3974938 C66.9737557,18.9772516 66.3969188,20.1520158 66.0706678,21.3995647 C65.8303036,22.319904 65.8347423,23.3056047 65.7431728,24.2632919 C65.5531728,26.2511499 66.1020062,28.0783686 67.0127378,29.8103413 C67.4307409,30.6055067 68.1793606,30.6735878 68.914167,30.3903491 C70.2564571,29.8728397 71.6457454,29.4077269 72.8750217,28.6829585 C75.0626309,27.3927523 77.2630603,26.071835 79.2369472,24.4878035 C80.9450635,23.1171614 82.3737059,21.3889865 83.8703799,19.7676719 C84.5488876,19.0329771 85.1781622,18.574567 86.2914925,18.7175831 C87.4219452,18.8634084 88.5959559,18.6596527 89.7512152,18.6222969 C90.4072335,18.6011297 90.4487183,18.9389499 90.1314743,19.387495 C89.0961877,20.8508157 88.0442765,22.3017871 86.929958,23.8133456 Z M154.178574,0.797615506 C153.64244,0.763731826 153.045124,0.562619807 152.582884,0.731126197 C151.616358,1.08391407 150.742596,1.39470377 149.687643,0.965257133 C148.774812,0.593408842 147.859309,0.859422593 147.078421,1.48743339 C146.820048,1.69528953 146.563081,1.9065751 146.289974,2.093698 C145.082487,2.92097127 143.784092,3.64049436 142.679671,4.58714517 C141.338334,5.73683937 140.142582,7.06010859 138.919608,8.34214749 C138.57804,8.7002904 138.144691,9.17272986 138.132473,9.60360572 C138.102572,10.6470375 137.325457,10.9533443 136.689629,11.4380756 C136.385347,11.6696311 136.034386,11.8745715 135.811308,12.1717112 C134.898385,13.3858705 134.04489,14.6446454 133.134031,15.8607887 C132.355888,16.8997915 131.950589,18.2629753 130.667641,18.8619459 C130.357852,19.0065916 129.926653,18.9398142 129.563076,18.887717 C129.466597,18.8737902 129.306542,18.5088669 129.358781,18.3793074 C129.838232,17.1920357 130.44987,16.0512209 130.847111,14.839153 C131.67741,12.3072078 132.905183,9.87711708 132.820187,7.09524064 C132.790351,6.12782231 133.078748,5.15396772 133.086007,4.18186557 C133.094758,3.00822877 131.900817,2.32083152 130.929694,2.94071202 C129.975034,3.55045869 128.997816,3.59668256 127.927155,3.46799602 C127.349807,3.3987317 126.642373,3.35189223 126.173709,3.61514196 C123.670459,5.0216115 121.844604,7.22425694 119.981546,9.32454446 C118.43434,11.0687824 117.17721,13.0696858 115.776448,14.9456859 C115.668049,15.0907993 115.439375,15.1457753 115.266345,15.2429495 C115.209047,15.0387697 115.059801,14.8087704 115.10842,14.6344027 C115.609497,12.8450867 115.951446,10.9774527 116.716401,9.30497914 C117.596033,7.38203145 118.887923,5.65084261 119.93048,3.79651479 C120.163014,3.38298907 120.282764,2.72638354 120.111351,2.33022722 C120.002706,2.07899972 119.150033,1.87932073 118.820997,2.04138052 C117.613553,2.63768486 116.402053,2.51363274 115.156333,2.3693235 C114.941129,2.3441803 114.691975,2.43789743 114.485423,2.53457758 C112.521865,3.45353206 110.946363,4.83053953 109.882142,6.71565873 C108.970517,8.33056089 108.116427,9.98407368 107.345232,11.6702799 C106.585754,13.3314649 105.921986,15.0403215 105.292777,16.7565969 C104.845407,17.9772796 104.509908,19.2407693 104.152383,20.4928566 C103.716007,22.0196302 103.288159,23.5493196 102.894767,25.0874267 C102.557056,26.4079855 102.364238,27.7717929 101.946155,29.0644673 C101.042311,31.8590351 100.035415,34.6205579 99.0574227,37.5201686 C98.7792449,38.4688446 98.5124926,39.2920016 98.2496301,40.1165771 C98.0102247,40.8668794 97.6666537,41.6067383 97.5831882,42.3744403 C97.540215,42.7664911 97.9265387,43.2410224 98.2109677,43.6066489 C98.2754476,43.6896599 98.7190318,43.4608814 98.9935253,43.3998668 C99.8638234,43.2060929 100.757905,43.0910527 101.604223,42.8228159 C103.263235,42.2964396 105.263836,42.3820108 106.104024,40.3155761 C106.362081,39.6808276 106.728508,38.975682 107.255575,38.5890741 C108.279069,37.8383858 108.825527,36.8421782 109.361668,35.7519921 C110.111036,34.2278236 110.945112,32.7383063 111.842454,31.2953223 C113.091607,29.28626 114.47152,27.3588448 115.720647,25.3500321 C116.617713,23.9072716 117.37729,22.3796325 118.228518,20.9070636 C118.596874,20.2700244 119.002644,19.6444904 119.472522,19.0814816 C119.635932,18.8861106 120.043943,18.8949162 120.339812,18.8106529 C120.35378,19.0620266 120.427303,19.3279901 120.371559,19.5629493 C120.112982,20.6469684 119.80121,21.7183284 119.539913,22.8018092 C118.72474,26.1817419 118.35904,29.5914984 118.968983,33.0492743 C119.173682,34.2095006 119.575638,34.3984096 120.600051,33.8959565 C120.845442,33.7755912 121.085518,33.614531 121.346189,33.5601413 C124.192439,32.9659446 126.660493,31.6925929 128.578829,29.4794732 C130.206196,27.6017949 131.790615,25.6860294 133.375849,23.7721165 C134.529634,22.3798142 135.656228,20.9652168 136.789287,19.5563477 C137.40402,18.7919788 137.970757,17.9847008 138.639216,17.2711636 C138.833109,17.0643557 139.301809,17.1153851 139.645131,17.0479734 C139.600041,17.265625 139.581208,17.4928519 139.505499,17.6992076 C138.927411,19.2749515 138.303986,20.8353282 137.759263,22.4226567 C136.854317,25.0595924 136.006127,27.7161246 135.117489,30.3588132 C134.418194,32.4392992 133.655678,34.4992566 132.995242,36.5919045 C132.601134,37.8414089 133.550167,38.8895357 134.83089,38.7608606 C135.384763,38.705229 135.948741,38.7407772 136.499602,38.6681687 C136.995668,38.6029274 137.535849,38.5478762 137.960523,38.314081 C139.944224,37.2202903 141.927148,36.117078 143.835062,34.8989515 C144.320775,34.5887747 144.935524,33.5144235 144.803122,33.3523311 C143.400337,31.6330112 144.785319,30.0176272 144.937402,28.4049338 C145.030268,27.4181009 145.795777,26.5113057 146.143751,25.5278098 C146.747325,23.8224712 147.261328,22.0855046 147.812835,20.3615674 C148.280207,18.9001493 148.731744,17.4332804 149.220115,15.9786132 C149.580663,14.904302 150.00994,13.8533699 150.370987,12.7791112 C150.784914,11.5475929 150.965789,10.194142 151.589377,9.0861369 C152.699523,7.11471743 153.443331,5.07425015 153.698205,2.83901377 C153.724844,2.60478183 153.824978,2.37978919 153.878909,2.14766857 C153.983396,1.69872329 154.079251,1.24786087 154.178574,0.797615506 Z M240.915489,10.7122162 C240.398023,13.07535 240.168795,15.5397116 239.347414,17.7898725 C238.010519,21.4527214 237.958202,25.2672451 237.509577,29.0360763 C237.393648,30.0093781 238.056662,31.1104925 237.838071,32.0278193 C237.551051,33.2335493 236.937604,34.4852431 236.119036,35.4117048 C234.820851,36.8809669 232.925631,37.351468 231.02431,37.7095012 C230.19892,37.865082 229.42035,38.2764991 228.626153,38.5868164 C227.187314,39.1487029 226.840829,38.9075652 226.995759,37.4287064 C227.454958,33.0453099 227.879255,28.6577402 228.400268,24.2818504 C228.55554,22.9774566 229.002824,21.7095605 229.272328,20.4159108 C229.327213,20.153094 229.184185,19.8495337 229.132367,19.564395 C228.844426,19.6812979 228.52163,19.750362 228.278547,19.9280191 C228.0308,20.1092249 227.856274,20.393545 227.658064,20.6390258 C226.596026,21.9533779 225.521648,23.2578505 224.482228,24.589978 C223.956284,25.2637168 223.601691,26.1036416 222.985297,26.667659 C221.224158,28.2785949 219.412118,29.8430349 217.52415,31.3012992 C216.953268,31.7421182 216.07187,31.7893257 215.32667,31.9937236 C214.617894,32.1878137 213.900756,32.3509857 213.187759,32.5299913 C212.962673,32.5868589 212.742153,32.6891391 212.5153,32.7051797 C210.768092,32.8290005 210.538878,32.6249266 210.785509,30.8596056 C211.079878,28.7529681 211.466809,26.6590886 211.882654,24.5038783 C212.340552,23.2959139 212.744412,22.1481541 213.105499,20.9870636 C213.17914,20.7499465 213.092158,20.4631314 213.079002,20.1992215 C212.759178,20.283239 212.289681,20.2614078 212.142725,20.4683528 C210.862253,22.2734415 209.684603,24.1521923 208.388281,25.9447607 C206.921552,27.9728582 205.416594,29.9780055 203.829235,31.9121418 C202.567603,33.4491106 201.296584,35.0345691 199.770377,36.2812028 C198.481114,37.334136 196.841621,37.9774195 195.313757,38.7114463 C194.44758,39.1277917 193.511335,39.4350433 192.575313,39.6585116 C191.549204,39.9033078 190.872387,39.2697575 191.090718,38.2059942 C191.524545,36.0910432 192.055351,33.9948678 192.600139,31.9049582 C193.029295,30.259541 193.511226,28.6259813 194.023723,27.0042168 C194.328862,26.03919 194.765334,25.1167437 195.093049,24.1578761 C195.487855,23.0026015 195.828795,21.8290439 196.19385,20.6638266 C196.72401,18.972481 197.223446,17.270838 197.79383,15.5930601 C198.447749,13.668098 199.07909,11.7273841 199.891178,9.86826995 C200.287074,8.96200586 201.037179,8.19697174 201.692251,7.42346385 C202.03799,7.01603062 202.606777,6.79208125 202.932659,6.37423079 C204.516048,4.34577328 206.625333,4.67979938 208.710662,5.09284252 C209.058591,5.1617224 209.590676,5.85377027 209.532316,6.16165917 C209.197696,7.92353807 208.982881,9.78964099 208.211104,11.3685033 C207.017038,13.8117291 206.780009,16.4703992 205.970246,18.9870852 C205.911393,19.1699695 205.961926,19.3880791 205.961458,19.5894691 C206.152094,19.4736984 206.353376,19.3719206 206.53188,19.2394767 C208.293594,17.9353035 209.639883,16.2749592 211.034747,14.5823607 C212.739547,12.5131488 215.022416,10.9194368 217.056886,9.12165394 C218.168581,8.13941776 219.225688,7.30668858 220.934304,8.03278227 C221.675184,8.34743112 222.720349,7.87088767 223.622824,7.89935248 C224.70393,7.93346587 225.412681,8.83719106 225.336089,9.94538616 C225.19152,12.0437873 224.434236,13.9530891 223.480086,15.7972718 C223.409123,15.9344557 223.28787,16.0625674 223.266986,16.2060245 C223.187416,16.7613375 223.138675,17.3211527 223.078527,17.8790119 C223.433381,17.6154121 223.852882,17.4068211 224.132445,17.0790159 C225.485868,15.4901018 226.791755,13.8611037 228.133586,12.2623886 C229.581046,10.5377061 231.223412,8.94483061 232.450814,7.07787209 C233.344989,5.71785713 234.423302,4.78663726 235.885369,4.44806825 C236.784442,4.23990116 237.809083,4.60709331 238.780208,4.66448251 C239.291953,4.6950455 239.815641,4.55192985 240.32434,4.59706603 C241.928017,4.73886176 242.502393,6.29664553 241.713009,7.71639345 C241.225861,8.59261978 241.137337,9.69905593 240.915489,10.7122162 Z M49.8657597,10.742246 C49.348294,13.1053799 49.1190659,15.5697415 48.2976842,17.8199024 C46.9607899,21.4827513 46.9084731,25.297275 46.4598476,29.0661061 C46.3439182,30.039408 47.0069328,31.1405224 46.7883418,32.0578492 C46.5013214,33.2635792 45.8878743,34.515273 45.0693069,35.4417347 C43.7711211,36.9109968 41.8759017,37.3814978 39.9745805,37.7395311 C39.1491903,37.8951119 38.3706202,38.306529 37.5764234,38.6168463 C36.1375846,39.1787328 35.7910999,38.9375951 35.9460293,37.4587363 C36.4052283,33.0753398 36.8295257,28.6877701 37.3505383,24.3118803 C37.5058105,23.0074865 37.9530947,21.7395904 38.2225982,20.4459407 C38.2774838,20.1831239 38.1344553,19.8795636 38.0826373,19.5944249 C37.7946968,19.7113278 37.4719004,19.7803919 37.2288176,19.958049 C36.9810706,20.1392547 36.806545,20.4235749 36.6083343,20.6690557 C35.5462967,21.9834078 34.4719187,23.2878803 33.4324985,24.6200079 C32.9065545,25.2937467 32.5519613,26.1336715 31.9355677,26.6976889 C30.1744283,28.3086248 28.3623887,29.8730648 26.4744203,31.3313291 C25.9035389,31.7721481 25.0221404,31.8193556 24.2769407,32.0237535 C23.5681645,32.2178436 22.8510262,32.3810156 22.1380296,32.5600212 C21.9129433,32.6168888 21.692424,32.719169 21.4655705,32.7352096 C19.7183627,32.8590304 19.4891487,32.6549565 19.7357795,30.8896355 C20.0301483,28.782998 20.4170801,26.6891185 20.8329243,24.5339082 C21.2908221,23.3259438 21.6946829,22.178184 22.0557696,21.0170935 C22.1294106,20.7799764 22.0424286,20.4931613 22.029273,20.2292514 C21.7094487,20.3132689 21.2399517,20.2914376 21.0929956,20.4983827 C19.8125233,22.3034714 18.6348732,24.1822222 17.3385516,25.9747906 C15.8718228,28.0028881 14.366865,30.0080354 12.7795056,31.9421717 C11.517874,33.4791405 10.2468545,35.064599 8.7206477,36.3112327 C7.43138451,37.3641659 5.79189138,38.0074494 4.26402713,38.7414762 C3.39785068,39.1578216 2.46160558,39.4650732 1.52558383,39.6885415 C0.49947481,39.9333377 -0.177342578,39.2997874 0.040988898,38.236024 C0.4748155,36.1210731 1.00562125,34.0248977 1.55040939,31.9349881 C1.9795661,30.2895709 2.46149656,28.6560112 2.97399345,27.0342467 C3.27913283,26.0692199 3.71560413,25.1467735 4.0433197,24.187906 C4.4381256,23.0326314 4.77906609,21.8590737 5.14412054,20.6938565 C5.67428035,19.0025108 6.17371626,17.3008679 6.74410099,15.62309 C7.39801984,13.6981279 8.029361,11.757414 8.84144814,9.89829984 C9.23734441,8.99203574 9.9874494,8.22700162 10.6425216,7.45349374 C10.9882605,7.04606051 11.5570473,6.82211114 11.8829294,6.40426068 C13.4663186,4.37580317 15.5756035,4.70982927 17.6609327,5.1228724 C18.0088621,5.19175229 18.5409471,5.88380015 18.4825864,6.19168906 C18.1479669,7.95356796 17.9331518,9.81967088 17.1613748,11.3985332 C15.967309,13.841759 15.7302797,16.5004291 14.9205167,19.0171151 C14.8616633,19.1999994 14.9121961,19.418109 14.9117284,19.619499 C15.1023644,19.5037283 15.3036463,19.4019505 15.482151,19.2695066 C17.2438643,17.9653334 18.5901534,16.3049891 19.9850175,14.6123905 C21.6898177,12.5431787 23.9726866,10.9494667 26.0071565,9.15168383 C27.1188514,8.16944765 28.1759582,7.33671846 29.8845748,8.06281216 C30.6254541,8.37746101 31.6706198,7.90091756 32.5730942,7.92938237 C33.6542003,7.96349576 34.3629519,8.86722095 34.2863598,9.97541604 C34.1417904,12.0738172 33.3845066,13.983119 32.4303562,15.8273017 C32.3593933,15.9644856 32.2381406,16.0925973 32.2172568,16.2360544 C32.1376869,16.7913674 32.0889452,17.3511826 32.0287972,17.9090418 C32.3836519,17.645442 32.8031529,17.4368509 33.0827161,17.1090458 C34.4361384,15.5201317 35.7420257,13.8911336 37.0838567,12.2924184 C38.5313168,10.5677359 40.1736829,8.9748605 41.4010845,7.10790197 C42.2952594,5.74788701 43.3735725,4.81666715 44.8356392,4.47809814 C45.7347125,4.26993104 46.759354,4.6371232 47.7304785,4.69451239 C48.2422233,4.72507538 48.7659117,4.58195974 49.2746102,4.62709592 C50.8782878,4.76889165 51.4526633,6.32667542 50.6632794,7.74642333 C50.1761314,8.62264966 50.0876076,9.72908582 49.8657597,10.742246 Z" id="mememe" fill="#1F2CA2"></path>
    </g>
</svg>