<?xml version="1.0" encoding="UTF-8"?>
<svg width="430px" height="101px" viewBox="0 0 430 101" version="1.1" xmlns="http://www.w3.org/2000/svg" xmlns:xlink="http://www.w3.org/1999/xlink">
    <defs></defs>
    <g id="Page-2" stroke="none" stroke-width="1" fill="none" fill-rule="evenodd">
        <g id="nownownow" fill-rule="nonzero" fill="#1F2DA2">
            <path d="M194.153343,42.3941031 C195.085308,39.5664225 196.081856,36.9606753 196.925334,34.3056068 C197.442355,32.6781195 200.408275,29.7251354 202.000551,29.5246593 C203.141895,29.3809675 204.283329,29.2266826 205.429433,29.1408675 C205.704189,29.1202947 206.022143,29.3178248 206.267797,29.4906328 C206.342876,29.5434523 206.315554,29.9157424 206.212721,30.0282309 C203.105607,33.4271061 201.92694,37.9075481 199.670868,41.7675352 C196.693069,46.8623559 196.100512,52.528899 194.912112,58.094222 C194.19809,61.4380558 192.842759,64.6496014 192.215426,68.0040163 C191.336082,72.7059737 189.938303,77.1536537 186.910242,80.8589999 C185.675688,82.3696655 183.872419,83.4233928 182.275493,84.6137165 C181.378658,85.282228 180.3594,85.7814173 179.422761,86.3991225 C177.93928,87.3774314 176.692415,87.0582927 176.214472,85.3153705 C175.665229,83.3124263 175.194843,81.2518262 175.019435,79.1878993 C174.631144,74.6190033 174.452444,70.0321368 174.181053,65.4530281 C174.057229,63.3637777 173.977195,61.268697 173.746717,59.1909732 C173.676166,58.5549904 173.171632,57.9678135 172.865837,57.3582961 C172.372804,57.8352309 171.641284,58.2211336 171.422403,58.802701 C167.991247,67.9191714 164.387822,76.9658579 162.112516,86.4961566 C161.333324,89.7598833 159.837995,92.9606392 158.104197,95.8453739 C156.875,97.8905078 154.760471,99.449169 152.177419,99.9222983 C151.820916,99.9876017 151.473626,100.153168 151.145732,100.319568 C149.018803,101.399011 148.894547,101.395869 149.04409,98.8171758 C149.436205,92.0554035 150.010412,85.3483291 152.09751,78.7995044 C153.372708,74.7982066 153.898466,70.5394889 154.580949,66.3665617 C155.130455,63.0067087 155.570154,59.6115163 155.767396,56.2148505 C155.99299,52.3299079 157.978551,49.0166636 162.742329,48.0286328 C162.869986,48.0021677 163.012471,48.0482853 163.140183,48.0219304 C166.220322,47.3862058 166.709217,47.8002062 166.165385,51.0304346 C165.802374,53.1866943 165.134329,55.2894717 164.67144,57.4312097 C164.573951,57.8822812 164.776084,58.3990117 164.840156,58.8854841 C165.423364,58.6857075 166.340208,58.655474 166.538361,58.2600211 C168.604137,54.1373967 170.93054,50.0760373 169.477776,45.0867209 C169.277057,44.3973787 170.06366,43.1316737 170.738641,42.5184123 C173.494322,40.0147689 177.087222,40.0450145 180.491543,39.5972944 C181.871867,39.4157589 182.934213,40.5973181 182.971104,42.1264576 C183.100723,47.4985716 183.217483,52.8711148 183.376101,58.2423818 C183.47145,61.4713214 183.590416,64.7012794 183.807536,67.9233449 C183.849655,68.5484149 184.39484,69.1391148 184.707979,69.7456618 C185.060538,69.2458093 185.571404,68.7947993 185.740638,68.2384083 C187.116501,63.7149548 188.326805,59.1382274 189.7899,54.6445529 C191.11185,50.5843471 192.688816,46.6083484 194.153343,42.3941031 Z M296.403388,18.2603748 C297.495694,18.1659428 298.386892,18.0374721 299.281832,18.0002909 C299.514596,17.9906181 299.909318,18.2240898 299.963157,18.420122 C300.045397,18.7196087 299.984903,19.3283406 299.831953,19.3847202 C295.125208,21.1197124 294.371626,25.6937638 292.626602,29.5377076 C292.399128,30.0387753 292.420874,30.6789313 292.417973,31.2551221 C292.400457,34.7619318 292.237037,38.2798503 292.4561,41.7728257 C292.690437,45.5093262 290.910637,48.6150856 289.926448,51.9907731 C288.277048,57.6480976 284.410063,60.7594299 279.095311,62.5378511 C277.648495,63.0219914 276.32017,63.8780288 274.957617,64.6018517 C272.722407,65.7892906 271.474847,65.6650305 270.511623,63.4473339 C269.52886,61.1846867 268.824303,58.7095456 268.520951,56.2616921 C268.185762,53.5568361 268.465259,50.7770039 268.421634,48.0307195 C268.415173,47.62417 268.104058,47.2225305 267.933909,46.8186199 C267.470953,47.120991 266.767907,47.3169376 266.582034,47.7421453 C264.625736,52.21753 262.9939,56.854258 260.786054,61.1955746 C258.669335,65.3576754 255.820936,68.9533443 251.601185,71.4571594 C249.100336,72.941041 246.75563,74.3817389 243.885949,75.1085201 C242.486781,75.4628885 242.042486,75.0093132 241.717828,74.1074531 C241.1915,72.6454089 240.581152,71.1114325 240.540356,69.593279 C240.398218,64.3041814 240.279215,58.9981813 240.547535,53.7190385 C240.782213,49.1018404 241.53744,44.5105667 242.089341,39.9110815 C242.317754,38.007553 242.537487,36.097187 242.900493,34.2172018 C243.422761,31.5124439 246.371013,29.1251432 249.02892,29.1206998 C249.6277,29.119693 250.240449,29.2044156 250.822846,29.1060554 C253.356777,28.6780614 254.082665,29.4085496 253.676181,31.909591 C253.103596,35.4328245 252.825269,39.0206125 252.017908,42.4855152 C250.675467,48.2468339 250.874553,54.0647284 250.911937,59.8862933 C250.91585,60.4931592 251.499661,61.0962446 251.81441,61.7010857 C252.41514,61.2484307 253.244027,60.9249832 253.580387,60.3226098 C256.185599,55.6571337 258.686814,50.9329094 261.237772,46.2365369 C263.671422,41.756132 266.256755,37.3533295 268.528972,32.7919092 C270.241207,29.3546497 274.217699,26.9779304 277.833929,28.0212113 C278.502443,28.2140648 279.183244,29.8123865 279.161547,30.7455971 C279.029588,36.4225986 278.609098,42.0928241 278.47865,47.7698255 C278.435183,49.6615333 278.860207,51.5904714 279.290606,53.4508903 C279.420152,54.0109146 280.289958,54.3972839 280.82065,54.863196 C281.221917,54.333945 281.828218,53.8624604 281.993673,53.2667889 C284.430151,44.4951002 286.820079,35.7101914 289.182751,26.9179665 C289.446183,25.9377059 289.682995,24.8698625 289.571671,23.8839184 C289.311944,21.5840284 290.608346,20.4763772 292.401103,19.6948245 C293.64169,19.153986 294.934314,18.7342406 296.403388,18.2603748 Z M209.430938,54.5615244 C211.302083,48.6488052 213.038282,42.8029236 216.158876,37.5510559 C217.884141,34.6474667 220.343608,32.3479327 223.422857,30.8613385 C223.929548,30.6167089 224.625524,30.7902292 225.228826,30.7231459 C226.111699,30.6249824 227.038111,30.6233743 227.860867,30.3346774 C230.16519,29.5261198 232.356093,30.0639146 234.521655,30.7829622 C234.762805,30.8630202 234.986489,31.7721349 234.838403,32.1428781 C233.630811,35.166333 233.622193,38.1249761 234.985623,41.1014053 C235.318461,41.8279777 235.741643,42.6794856 235.646495,43.4106121 C235.077822,47.7797191 233.956261,52.0657981 233.137759,56.3554613 C232.009227,62.2699973 229.117362,66.7728414 225.191064,70.7262172 C222.111169,73.8273856 218.132044,75.8298141 214.013499,77.3904518 C212.863782,77.8261179 211.738454,78.3301681 210.578492,78.7346434 C208.613905,79.4196893 207.279997,78.9601111 206.567406,77.1177861 C205.836069,75.2270236 205.415434,73.3127539 206.035892,71.1698989 C206.616261,69.1654938 206.539353,66.9781905 206.96097,64.9147426 C207.66301,61.4789565 208.53225,58.0778102 209.430938,54.5615244 Z M227.304725,57.4776833 C227.970411,55.2751833 228.803832,53.1068941 229.255672,50.8607568 C229.728404,48.510772 229.865727,46.0888558 230.085876,43.692447 C230.179829,42.6698249 230.015995,41.6184426 230.158072,40.6070279 C230.229439,40.099037 230.658108,39.5815825 231.053609,39.2052906 C231.255327,39.0133704 231.74059,39.1236861 232.097696,39.0973807 C231.821501,38.7214452 231.573782,38.3194863 231.263165,37.975036 C230.627257,37.2698594 230.026697,36.5042522 229.283025,35.933352 C228.484415,35.320299 227.52469,34.4942497 226.66076,34.523538 C225.924669,34.5484931 224.903863,35.5160372 224.564444,36.3079863 C223.102928,39.7180073 221.67392,43.1618215 220.556906,46.6970845 C219.055251,51.4497505 217.666723,56.2566839 216.596199,61.1221208 C216.034461,63.6752327 216.129768,66.4044425 216.165251,69.050894 C216.188581,70.7915448 218.225169,72.2444443 219.06939,71.3128908 C221.13934,69.0288358 223.18902,66.6678528 224.836421,64.0735088 C226.005702,62.2321166 226.505909,59.9598698 227.304725,57.4776833 Z" id="Combined-Shape"></path>
            <path d="M322.926253,52.7564893 C322.094386,48.3096904 321.387127,43.9580324 320.595545,39.6217144 C320.507371,39.1386806 319.939588,38.7428991 319.594226,38.3066573 C319.274101,38.7016635 318.795065,39.0484909 318.658039,39.499002 C317.023719,44.8721499 315.413991,50.2532112 313.866615,55.6518506 C313.571958,56.679867 313.52781,57.7899171 313.45165,58.8680041 C313.163926,62.9412826 313.018748,67.0277054 312.614702,71.0888253 C312.191938,75.3381167 311.686922,79.6684073 307.756197,82.4018854 C306.297361,83.4163688 304.675106,84.2762618 303.010347,84.8905778 C301.699773,85.3741895 301.172908,84.1582451 301.101806,83.1321261 C300.971969,81.2583703 300.964597,79.3625719 301.08962,77.4881592 C301.255514,75.000933 301.68292,72.5309803 301.845462,70.0436688 C302.17229,65.0428486 302.370706,60.0338109 302.670335,55.0310383 C302.894634,51.2858747 302.992813,47.5168315 303.516484,43.8104249 C304.056911,39.9853746 303.784967,35.9288651 305.883066,32.4539424 C307.293038,30.1187303 308.585627,27.5301739 311.993205,27.4928798 C312.644739,27.4857453 313.274412,26.7867649 313.941897,26.4641729 C314.368134,26.2581773 314.845379,26.1573553 315.299752,26.0093739 C315.251802,26.5488613 315.307075,27.1237573 315.135954,27.6210025 C314.676902,28.9548663 313.971837,30.2191537 313.639478,31.5781012 C313.176697,33.4702535 312.901292,35.4163716 312.684171,37.354853 C312.622171,37.9083876 313.03978,38.5154627 313.237454,39.0979895 C313.705267,38.6425148 314.430584,38.2658777 314.598696,37.7186412 C315.615174,34.4099809 316.627167,31.0901804 317.394342,27.7182569 C317.939472,25.3222635 318.166659,22.7853621 320.573563,21.4832361 C322.345736,20.5244951 324.285594,19.8251137 326.225574,19.271597 C326.566915,19.1742028 327.655129,20.3093273 327.756268,20.9728194 C328.408558,25.2514613 328.85094,29.5613878 329.423257,33.8529337 C330.051614,38.5646663 330.760237,43.2656973 331.402389,47.9756633 C331.593055,49.374189 331.636594,50.7929449 331.835291,52.1899929 C331.895402,52.6125674 332.250463,52.9933318 332.470423,53.3932553 C332.78286,52.9910445 333.25651,52.6287344 333.368702,52.1769581 C333.524115,51.5511584 333.41051,50.8580751 333.407293,50.1938225 C333.373856,43.2894736 334.919611,36.6500703 336.666622,30.0247056 C337.385213,27.2995235 337.890606,24.4855536 338.145161,21.6805128 C338.393843,18.940143 340.494769,16.1558641 343.295387,15.592844 C344.40417,15.3699391 345.529452,15.2286907 346.647203,15.0502665 C346.118767,15.9346533 345.389416,16.7577113 345.096525,17.7139984 C343.793969,21.9667199 342.319206,26.1998442 341.470998,30.5497136 C340.475053,35.6572832 339.944448,40.8671033 339.453445,46.0553468 C339.247925,48.2268723 339.641029,50.4585773 339.800537,52.6601318 C340.316471,59.7802967 336.912964,64.7909886 331.228697,68.5739969 C330.664411,68.9495367 330.015691,69.198574 329.451052,69.5736817 C327.493768,70.8739768 326.518953,70.6481983 325.849945,68.4328976 C325.061567,65.822308 324.350738,63.1715866 323.86517,60.4915238 C323.409798,57.9781184 323.292281,55.4037069 322.926253,52.7564893 Z M395.298367,30.7329522 C395.892215,28.442339 396.49803,26.4791358 397.801976,24.5500545 C398.858531,22.9869601 398.425532,20.3732227 398.515339,18.2197648 C398.600735,16.1713439 398.400186,14.1085592 398.532886,12.0655228 C398.612628,10.8376355 401.953502,8.59084485 403.607415,8.41044836 C408.55619,7.870672 408.649628,7.96433959 408.878618,12.900405 C409.126179,18.2367072 409.32295,23.57757 409.71118,28.9041452 C409.884263,31.2789992 410.389059,33.6416066 410.896,35.9767369 C411.329658,37.9742633 412.939753,38.4617098 414.348201,36.9781214 C416.212119,35.0147536 418.392349,33.1210658 419.539443,30.7625551 C421.288281,27.1668513 422.766041,23.3259688 422.838545,19.1897308 C422.894403,16.0030897 422.932495,12.8115638 422.81198,9.62849266 C422.758169,8.20720799 422.225322,6.81004157 422.048632,5.38479146 C421.961116,4.67884083 421.913422,3.61190909 422.322002,3.26515298 C423.748436,2.05450181 424.461921,-0.194936426 426.9473,0.0135417637 C428.230701,0.121197198 428.737106,0.63582049 428.866882,1.91732567 C429.180585,5.01488134 429.813232,8.08866356 429.978028,11.1899965 C430.096618,13.4220663 429.70773,15.6872793 429.467602,17.9294245 C429.348014,19.0460557 428.827888,20.1543992 428.87797,21.2487566 C429.104694,26.2043298 426.308171,29.878439 423.502898,33.366001 C418.984491,38.98333 412.683126,42.1314214 406.079,44.6673007 C404.248519,45.3701768 402.381822,44.3976011 401.686834,42.5775895 C401.55545,42.2335265 401.462548,41.8661436 401.277743,41.5531555 C401.018362,41.1139332 400.689573,40.7155667 400.390468,40.2997312 C399.890984,40.7261742 399.212934,41.0573002 398.92426,41.5962738 C397.909525,43.4909955 397.358935,45.7310575 396.023795,47.3355393 C393.70002,50.1281569 390.923602,52.5238374 387.205393,53.4797108 C386.328305,53.7051911 385.56442,54.3432471 384.695058,54.6305125 C382.957284,55.2047397 381.282338,53.4345244 380.916237,50.7970263 C380.551355,48.1682136 379.80241,45.5482753 379.799144,42.9237326 C379.793831,38.6511672 380.288294,34.379572 380.509778,30.1043574 C380.598976,28.3823393 380.352146,26.6307605 380.561128,24.9297267 C380.968416,21.6148958 381.293549,18.2395478 382.22903,15.0581675 C382.820246,13.0476338 384.100796,10.8774265 385.729387,9.6431438 C387.117291,8.5912905 389.438507,8.73345731 391.364084,8.47582658 C391.54772,8.45125668 392.117587,9.37523076 392.061947,9.80069918 C391.603188,13.3090765 390.89733,16.7895101 390.543464,20.306207 C390.121724,24.4970979 389.864561,28.7124767 389.74758,32.9230991 C389.671786,35.6514439 389.926341,38.3941647 390.148118,41.1211047 C390.192448,41.6662392 390.758465,42.1690834 391.08389,42.6914215 C391.501268,42.2820277 392.150219,41.9425567 392.298858,41.4520174 C393.356047,37.9627433 394.310928,34.4425857 395.298367,30.7329522 Z M352.47404,32.2277624 C352.573864,31.9288853 352.492684,31.674176 352.585708,31.5385385 C355.060534,27.9301432 355.564502,23.3615719 357.921227,19.828252 C359.969268,16.7577508 362.933025,14.1808212 365.87631,11.8743912 C367.143431,10.881441 369.382273,11.1316375 371.175662,10.7957764 C371.660596,10.7049601 372.124912,10.4568639 372.609237,10.4203845 C373.565165,10.3483797 374.528429,10.373827 375.48867,10.3589753 C375.463617,11.3437977 375.579915,12.3574596 375.38541,13.3077173 C374.912613,15.6176387 374.228031,17.8850414 373.777753,20.1984722 C373.643469,20.8884627 373.784699,21.8199638 374.169566,22.3934212 C377.917191,27.9774127 376.348284,33.6827752 374.184188,39.1151296 C372.506245,43.3272026 370.374124,47.5216488 367.6367,51.1102943 C363.995966,55.8831583 359.02767,59.268457 353.137882,61.0131321 C351.45158,61.512649 349.262016,59.1234647 348.950823,56.8954637 C348.349712,52.5915467 348.87169,48.392119 349.780095,44.2041324 C350.639124,40.2439983 351.509095,36.2862335 352.47404,32.2277624 Z M358.163986,44.4852061 C358.297076,46.6219162 358.316256,48.7751153 358.623014,50.886687 C358.735413,51.6603864 359.391992,52.5704592 360.066288,52.9632116 C360.44282,53.1825245 361.651013,52.6568289 361.992987,52.1417045 C363.604811,49.7137449 365.429224,47.3194213 366.456754,44.6377465 C367.888477,40.9010798 368.699349,36.9249249 369.735214,33.0404469 C370.289898,30.9605524 371.651042,28.9447056 370.17472,26.6745234 C369.826191,26.1385789 369.81091,25.3493941 369.755807,24.6675661 C369.588768,22.5999948 369.618672,20.5039213 369.271702,18.4699793 C369.140732,17.7023473 368.188167,17.0743974 367.610136,16.3827742 C367.123374,17.0212707 366.581655,17.6268191 366.170565,18.3106481 C365.924832,18.719452 366.01871,19.3631065 365.729572,19.7096789 C363.02834,22.9475247 361.929061,26.9006579 360.712437,30.7933107 C359.359091,35.123504 358.219552,39.5040441 358.163986,44.4852061 Z" id="Combined-Shape"></path>
            <path d="M45.1900983,62.7058087 C46.8409314,59.7428048 48.3960634,56.8811427 49.9413737,54.0142273 C50.7279276,52.5549621 51.5392652,51.1065429 52.2579957,49.6144491 C52.7012729,48.6942134 52.7380527,47.1610114 53.4027701,46.8531848 C54.7797514,46.2154523 56.4480975,46.1672265 58.0082837,45.9656079 C58.8152554,45.8613125 59.6555483,45.8760077 60.4649316,45.9707647 C61.0648518,46.0409971 61.6392152,46.3269865 62.2249594,46.5168393 C61.9210321,46.9680842 61.6324313,47.4304171 61.3106499,47.8687344 C59.4906173,50.3477375 57.676942,52.8315825 55.8344392,55.2940745 C52.0582028,60.3410756 50.3811857,66.261975 48.68249,72.1755387 C46.9509482,78.2034453 45.1084885,84.203244 43.5463109,90.2742679 C42.8476813,92.9893159 41.1026332,94.1191838 38.6644792,94.7408896 C37.4669767,95.0462466 36.2674649,95.3602226 35.0991487,95.7581095 C33.6928838,96.2370018 32.6775331,95.6697679 32.7331417,94.2465512 C32.8665234,90.8327862 32.0958079,87.7131213 30.4444269,84.6695232 C28.1097983,80.3666082 26.1135873,75.8831368 23.9123743,71.506842 C23.6392408,70.9637939 22.9973189,70.6039888 22.5262806,70.1592803 C22.1032021,70.7120126 21.5058209,71.2037847 21.2850439,71.8272817 C19.7319425,76.2134544 18.3876434,80.6767347 16.7156314,85.0160127 C15.3111356,88.6610049 13.8153627,92.3251949 11.8289953,95.6693082 C10.9851004,97.0900074 8.86925736,97.9033572 7.17739425,98.6459177 C5.66602038,99.3092156 3.95285629,99.5450185 2.31008886,99.8788223 C0.439197512,100.258963 -0.137470562,99.7847432 0.0265257505,97.8848609 C0.115348872,96.8558751 0.437982731,95.8210546 0.807702944,94.8460079 C3.03976514,88.9594622 5.31799064,83.0902263 7.57643164,77.2135338 C8.58512059,74.5888126 9.69530126,71.9956364 10.5532747,69.3227616 C11.3070343,66.9745641 11.8449251,64.5498876 12.347199,62.1320868 C12.9139445,59.4040139 15.1988106,57.9799737 16.7912799,56.0280892 C16.8329528,55.9770305 16.894008,55.8869707 16.9303157,55.8940882 C19.563635,56.4112805 21.3683985,54.9223342 23.3582615,53.5529836 C24.5642523,52.7230743 26.1702067,52.2656317 27.8220139,53.0418922 C28.4197479,53.3227734 29.2854155,53.201386 29.9906397,53.0664652 C32.5504172,52.5767268 33.2508002,53.1250527 33.5356741,55.5852204 C34.2788778,62.0033878 35.0950382,68.4135172 35.950171,74.8179089 C36.0118751,75.2799999 36.7662465,76.0819714 36.9534038,76.0179608 C37.5961753,75.7980399 38.329654,75.3838839 38.6702578,74.8272057 C40.083538,72.5174044 41.4034429,70.1483132 42.6827077,67.7613315 C43.5498183,66.1433958 44.2921876,64.4594157 45.1900983,62.7058087 Z M94.874825,55.3677447 C95.216525,51.6281896 97.9930787,47.9943101 101.365004,46.9375075 C103.802196,46.173642 105.830717,47.8428782 108.096651,48.1258415 C108.241068,48.1438776 108.470625,48.7664065 108.39754,49.0377248 C106.97266,54.3274528 105.471139,59.5970137 104.072918,64.8935204 C103.580603,66.7583712 103.284416,68.6783959 102.990176,70.5871632 C102.936821,70.9332652 103.32793,71.347082 103.513839,71.7296442 C103.993037,71.4950761 104.719112,71.3844133 104.9115,71.0058703 C106.185948,68.4979608 107.464232,65.9795444 108.511217,63.3732465 C109.65182,60.5338576 115.144277,56.4158805 118.119954,56.7196882 C119.670714,56.8780198 121.187179,57.6127366 122.645185,58.2533741 C123.012375,58.4147318 123.288663,59.2197777 123.276655,59.7212341 C123.211449,62.4433266 123.007016,65.1621273 122.943127,67.8842198 C122.931788,68.3675428 123.356718,68.8609614 123.580174,69.3497316 C124.154854,69.0004576 124.996249,68.7875815 125.25953,68.2790323 C126.637278,65.6179722 127.877369,62.8861224 129.147859,60.1708083 C130.288268,57.7335429 131.365639,55.2663541 132.544569,52.8478754 C133.860412,50.14854 135.326457,47.5203564 136.602098,44.8032022 C137.725067,42.4113059 141.122044,41.4276892 143.437789,42.3314864 C144.472096,42.7351592 145.704661,42.6278859 146.843303,42.7814481 C147.251987,42.8365737 147.983225,42.9546931 147.991713,43.0819879 C148.023049,43.5517533 147.975844,44.2205952 147.669487,44.4885968 C144.625987,47.1509404 144.069392,51.0683155 142.440834,54.444652 C141.506771,56.3812361 139.934089,58.08899 139.346025,60.101036 C137.465305,66.5359081 133.571288,71.8145234 129.904636,77.2291734 C128.376054,79.4864638 125.83052,80.0494365 123.290587,80.458605 C121.611816,80.7290519 119.841448,80.7810304 118.289885,81.3833196 C116.971532,81.8951377 116.216728,81.4091516 115.407083,80.7090063 C114.556518,79.9734181 113.785881,79.1444529 113.000825,78.3366229 C111.850917,77.1533727 110.574923,77.3302974 109.895518,78.5847724 C107.207455,83.5481532 102.679057,84.684364 97.5699879,84.8336412 C96.425512,84.8670988 95.2887817,85.1098983 94.1443785,85.2099086 C92.175022,85.3820397 91.2368666,84.5165663 91.0228124,83.109594 C90.7331281,81.2055961 90.4411539,79.231148 90.6433584,77.3389643 C91.0429804,73.5996273 91.9008046,69.9101379 92.3454517,66.1737064 C92.7817687,62.5072887 94.9422709,59.2505726 94.874825,55.3677447 Z M80.7076941,78.9685452 C78.6017768,82.9556688 75.0717344,84.6708548 71.0397379,85.5958114 C68.9009501,86.0864701 66.7213082,86.4002283 64.5626326,86.8070965 C64.1381841,86.88711 63.711945,86.9930756 63.3092174,87.1460572 C59.8699069,88.452438 58.7323729,86.9579961 58.2726667,83.8273154 C57.383336,77.7707689 58.4834509,72.0351465 60.9220191,66.4281504 C62.1869372,63.5197639 62.8870585,60.3690376 63.8498758,57.3301604 C63.9973668,56.8646316 64.0748239,56.3193806 64.3721078,55.9673709 C67.9095853,51.7791859 72.0076885,48.4990102 77.7561803,47.9090675 C78.3455477,47.848592 78.9045412,47.491571 79.476639,47.2696163 C81.4823739,46.4913948 83.485904,45.6988653 85.5598398,47.0903435 C85.6536043,47.1532402 85.8109053,47.118572 85.9372602,47.1379881 C88.3702993,47.5116166 88.3209147,47.4915226 87.4195755,49.6506912 C87.1137298,50.3833255 87.0837702,51.2429646 87.0020749,52.0520052 C86.8388791,53.6681008 86.7319863,55.2896923 86.5928922,56.908282 C86.3894095,59.2759687 85.4676709,61.6533634 86.9122808,63.9877618 C87.151752,64.37473 87.4981531,65.5129018 86.1282842,65.4021181 C85.8519601,65.3797969 85.4925767,65.5303327 85.2792776,65.7205488 C84.1580872,66.7204588 83.4827864,70.6227754 83.8757104,72.0690646 C84.1171179,72.9576581 84.1476379,74.1463313 83.7346556,74.914433 C82.9665525,76.3430248 81.8051479,77.5627348 80.7076941,78.9685452 Z M77.2157956,72.9196006 C77.6813782,72.4619882 78.3454136,72.0833722 78.5686261,71.5293087 C78.9574823,70.5640669 79.0066235,69.4698842 79.3177305,68.4663429 C80.4610495,64.7779674 81.7003618,61.1185224 82.8091054,57.4202207 C83.4294677,55.3509429 84.4376754,53.2193738 82.5282506,51.2099183 C81.4303462,50.054485 80.4764434,49.9279891 79.212116,51.062263 C76.4001221,53.5848681 74.7581248,56.7983213 73.6181429,60.266219 C71.6870824,66.1407085 69.7691198,72.0402792 69.8587742,78.3319745 C69.8670131,78.910369 70.2377713,79.4836797 70.4401889,80.0593385 C70.9872899,79.7771015 71.6847258,79.6225222 72.0557702,79.1908144 C73.7591669,77.2088854 75.3713445,75.1495097 77.2157956,72.9196006 Z" id="Combined-Shape"></path>
        </g>
    </g>
</svg>