<?xml version="1.0" encoding="UTF-8"?>
<svg width="465px" height="37px" viewBox="0 0 465 37" version="1.1" xmlns="http://www.w3.org/2000/svg" xmlns:xlink="http://www.w3.org/1999/xlink">
    <defs></defs>
    <g id="Page-2" stroke="none" stroke-width="1" fill="none" fill-rule="evenodd">
        <path d="M45.1077983,3.85790219 C45.2413232,6.38916718 43.7189641,8.07165912 42.3663254,9.55196007 C39.4131291,12.7838709 36.2845478,15.8115136 34.0814392,19.6828266 C32.965424,21.6439008 30.9648755,22.1512053 28.32179,19.7180634 C26.2061066,17.7704281 24.2123823,15.6876202 22.2095999,13.6211279 C21.1851339,12.5640752 20.340433,12.6298266 19.4710556,13.9867631 C17.6740977,16.7914805 15.96108,19.6534196 14.0753141,22.3968099 C12.230926,25.0799977 9.13865603,25.5187075 7.34835473,22.4907452 C4.91611086,18.3770454 2.85153997,14.0187875 0.96980765,9.61975019 C0.184965216,7.78497685 0.117917533,5.58384641 0.00788592653,3.53408268 C-0.144769579,0.690279862 1.93822387,-0.757310647 4.57724188,0.400051897 C6.61291524,1.29281708 8.2879247,2.53325753 8.35785257,5.26956479 C8.40532432,7.12720988 9.17424016,8.98484991 9.74689619,10.8026794 C10.0230981,11.6794541 10.6479181,11.6039446 11.1658373,10.8954079 C12.7859199,8.67903118 14.4031838,6.4605745 16.0164036,4.23920007 C16.6197782,3.40835451 17.1268072,2.49056286 17.8211221,1.74611991 C19.4801002,-0.0326516262 22.8804974,0.253914721 24.1413469,2.33153202 C25.4452384,4.48006084 26.5111811,6.77213734 27.7927541,8.93533646 C28.911227,10.8232376 30.024129,10.9310249 31.5256219,9.2880564 C33.8200759,6.77740769 36.5366985,4.70412403 38.3396786,1.66357679 C39.528669,-0.341544812 42.7930451,0.276188838 44.3829245,2.53338392 C44.6425743,2.90201167 44.8670589,3.29540119 45.1077983,3.85790219 Z M71.8296618,6.02453977 C71.8296618,2.70229463 73.2496168,1.17902347 75.367452,2.25109343 C76.4296229,2.78877452 77.3252806,3.85557703 78.0223453,4.87109198 C79.322837,6.76569882 79.6702234,6.95090769 81.0746566,5.2657656 C83.1865242,2.73177606 85.6564235,1.07527475 89.1911392,1.29841784 C93.5030022,1.57062226 96.103644,3.43527642 97.4682064,7.60544602 C98.1311199,9.63135976 97.486048,10.8147631 95.2215849,12.1878607 C94.2458332,12.7795235 93.432749,13.6394432 92.5457644,14.3774917 C93.4379727,15.2042405 94.196276,16.317837 95.2457411,16.8077242 C99.6258626,18.8523584 104.103038,20.6879746 108.524661,22.6453074 C110.480606,23.5111503 112.631606,24.2072288 113.614135,26.3574465 C114.190464,27.6187066 114.689111,29.0541834 113.484671,30.2389145 C112.0216,31.6780389 110.357357,31.6276054 108.657982,30.8150116 C105.703397,29.4022032 102.627019,28.2449562 99.6074371,26.9670062 C94.6359446,24.8629682 89.761539,22.5809557 85.5146723,19.1667559 C85.4680683,19.1292875 85.4323852,19.0783141 85.3860899,19.0403554 C82.7352847,16.8667752 82.4222041,17.0791985 81.1407109,20.1924342 C80.5349808,21.663996 79.3220548,23.1344453 77.9906517,24.0000015 C76.0082148,25.2888063 73.3594538,23.2546522 73.2853714,20.5849697 C73.2286618,18.5413549 73.4539842,16.474989 73.230315,14.454555 C72.9239401,11.6869644 72.3111349,8.95329933 71.8296618,6.02453977 Z M268.361745,14.6008135 C267.804085,13.0801846 267.313933,11.6566979 266.879587,10.2163833 C266.684245,9.56867749 266.488991,8.88731078 266.489278,8.22130083 C266.489851,6.85856488 265.976645,5.16188724 267.872123,4.60585221 C269.99825,3.98214839 272.316767,4.98207799 273.321424,6.78004124 C273.619319,7.31309113 273.870467,7.87481829 274.110242,8.43737743 C275.418349,11.5064994 276.394574,11.1058588 278.662443,10.1930649 C282.320869,8.72058801 285.868633,6.96958122 289.44399,5.29535717 C292.182548,4.01296881 295.067585,5.89887515 295.431535,8.87998249 C295.659871,10.7505378 294.893821,11.4760895 293.460504,12.0781389 C291.718492,12.8098452 289.977627,13.5476294 288.266185,14.3468666 C287.692832,14.6146327 287.211364,15.0791186 286.687888,15.4536804 C287.227982,15.6809643 287.758049,15.9367568 288.309781,16.1309475 C292.194781,17.4982868 296.068959,18.8989238 299.977211,20.196831 C302.996341,21.1994772 306.051616,22.0967934 309.106517,22.9870901 C311.365305,23.6453749 312.772482,25.7250642 312.326433,27.8867976 C311.946284,29.7291087 310.146152,30.9879609 308.537748,30.1509465 C303.896307,27.7355634 298.737892,27.0791463 293.845722,25.5342015 C289.480136,24.1555556 285.094295,22.8394153 280.701555,21.5496626 C279.892835,21.3122182 279.008407,21.3325835 278.158934,21.2339481 C278.151882,22.1612116 278.11891,23.0891691 278.143462,24.0155948 C278.187565,25.6798266 278.522289,27.3845075 278.262149,28.9958431 C277.97124,30.797655 274.308251,31.2732323 272.516539,29.9826259 C271.038525,28.9179748 270.798177,27.2866325 270.476192,25.7698111 C269.696917,22.0990969 269.114043,18.3866935 268.361745,14.6008135 Z M197.765471,11.7119634 C195.592971,15.2085384 193.757156,18.8007841 191.363791,21.9722887 C188.605573,25.6272608 185.362097,25.4390103 182.740506,21.5587708 C181.48027,19.6934334 180.776043,17.4549284 179.791376,15.3991144 C179.550234,14.8956615 179.196754,14.4460091 178.894936,13.9716216 C178.519658,14.3468944 178.062522,14.6696837 177.782568,15.1061066 C176.14031,17.6663157 174.566157,20.2702855 172.917948,22.8265657 C170.746153,26.1948725 167.34542,26.2577862 165.08574,22.8702715 C162.678897,19.2621844 160.315915,15.611273 158.195672,11.8321212 C157.319608,10.270624 155.917015,8.50787837 157.403603,6.44521809 C158.401891,5.0600755 159.836839,4.83395437 161.328859,4.97377724 C162.418724,5.07591398 163.085902,5.6195461 163.646098,6.84630496 C164.759578,9.28470641 166.414597,11.4772685 167.863408,13.760273 C168.34406,14.517689 168.835556,14.4270434 169.374042,13.7543718 C171.149202,11.5369204 172.961235,9.34901944 174.741817,7.13585801 C175.898904,5.69765374 176.905281,4.1160975 178.194389,2.81139349 C180.166676,0.815236712 183.802798,2.06986251 184.503059,4.84822817 C185.064113,7.07428615 185.655055,9.29527997 186.331842,11.4879197 C186.494852,12.0159914 187.123063,12.8470053 187.41029,12.7977619 C188.018643,12.6934733 188.701536,12.2131352 189.073685,11.6883308 C190.380028,9.84621835 191.567817,7.92001724 192.800194,6.02548226 C193.896803,4.33969775 196.058812,3.35647184 197.567947,3.85789966 C198.813481,4.27173683 200.42107,6.7182379 199.965455,7.9887549 C199.50054,9.28520221 198.57796,10.4175163 197.765471,11.7119634 Z M434.38035,29.4964468 C435.651495,31.8076295 435.398782,33.2371885 433.582319,34.1908449 C431.813947,35.1192599 429.815212,34.5121356 429.006558,32.5771018 C426.650022,26.9382217 424.388259,21.2596195 422.110362,15.5881528 C421.695919,14.5563971 421.528987,13.3986323 420.980583,12.4542105 C420.343269,11.3566868 420.653154,10.420018 421.419756,9.865691 C422.367439,9.18044528 423.386533,8.54430533 424.856084,9.21515301 C426.922306,10.1584008 427.44792,12.0150876 428.228804,13.7685874 C428.63496,14.6805934 428.912358,15.6502345 429.24252,16.5957306 C429.992547,18.7432483 430.792517,19.1085644 432.92032,18.5127632 C439.09849,16.7828241 445.135692,14.6791057 450.978631,12.0150709 C452.883563,11.1465064 454.4638,11.8230736 455.324513,13.700836 C456.234199,15.6853005 455.87944,16.9449684 453.778527,17.8173238 C450.238036,19.2874535 446.614102,20.5563448 443.027725,21.9164776 C442.664282,22.0543165 442.317899,22.2373382 441.963581,22.3993832 C442.291186,22.7188004 442.566821,23.2163738 442.954596,23.329429 C446.018665,24.2227672 449.1165,25.0003445 452.179468,25.8972585 C455.284356,26.8064377 458.370906,27.7818038 461.446304,28.7867203 C462.97554,29.2863877 464.570543,31.1199264 464.419172,32.8461682 C464.315803,34.0243976 463.890604,34.8808236 462.956938,35.2132667 C462.138101,35.5048362 461.063069,35.4979983 460.223251,35.2342325 C457.092444,34.2508712 454.040364,33.0149684 450.904796,32.0489474 C447.428002,30.9777892 443.903205,30.0552537 440.377482,29.1531821 C438.568556,28.6903439 436.72322,28.3309901 434.8733,28.0800844 C433.578925,27.904529 433.829962,28.6132087 434.38035,29.4964468 Z M153.800783,26.6075967 C151.603797,26.2464963 149.586657,25.8893405 147.571116,25.523303 C144.941988,25.0458353 142.305387,24.6042604 139.687598,24.0707173 C134.589231,23.0316001 129.505367,21.9213095 124.406835,20.8830467 C123.291955,20.6560105 122.254601,20.6396625 122.358542,22.3564325 C122.449348,23.8563877 120.854223,25.5372709 119.154341,25.8763974 C117.498066,26.2068237 116.384629,25.4868868 115.5017,24.0671745 C114.114061,21.8358653 114.030066,19.2988923 113.773463,16.8536392 C113.467116,13.934462 112.350847,11.4356128 110.789212,9.04649617 C109.646925,7.29893866 110.017773,5.254186 111.598428,4.3524838 C113.350997,3.35271959 117.016874,4.50612043 118.034303,6.46412309 C118.724932,7.79320358 119.306716,9.18595541 119.841873,10.5866472 C120.352092,11.9220615 120.9498,12.0505063 122.236969,11.4478506 C126.56761,9.42022057 130.904753,7.38824818 135.345992,5.62664869 C136.618239,5.12202219 138.146781,5.63792207 139.018811,7.15130253 C139.73342,8.39152271 140.242747,9.74293834 139.075003,10.712414 C137.904151,11.6844738 136.351035,12.2075536 134.9415,12.8769796 C133.837595,13.401255 132.687572,13.828162 131.580714,14.3467236 C131.352687,14.4535576 131.225019,14.7746446 131.051089,14.9969749 C131.248403,15.1357509 131.430092,15.3621418 131.645303,15.4005028 C137.139886,16.3796872 142.649181,17.2806676 148.130044,18.3304302 C150.380313,18.7614261 152.608663,19.3962328 154.773681,20.1491415 C156.054414,20.5945296 157.015156,22.9822025 156.659802,24.5663515 C156.362866,25.8901064 155.309345,26.4954729 153.800783,26.6075967 Z M404.318253,29.9478297 C401.066401,28.0520218 397.906281,26.243901 394.74259,24.4421273 C393.304556,23.6231531 392.569076,23.9709526 392.123555,25.6028128 C391.80027,26.7867668 391.340953,27.9362392 391.062189,29.129109 C390.532784,31.394503 387.922609,31.6028158 386.781589,30.0000045 C385.872608,28.7231399 385.409015,27.0876651 384.933256,25.5538229 C384.236302,23.306524 383.739295,20.9980189 383.092813,18.7339585 C382.541588,16.8035697 381.639881,14.9350307 381.368478,12.9733726 C381.078605,10.8785251 382.426054,10.0439352 384.282806,11.0685667 C385.428719,11.7009215 386.530552,12.6460922 387.278419,13.7128536 C388.431958,15.358274 389.107798,15.5262642 390.209586,13.8905193 C390.773374,13.0534775 391.238246,12.150519 391.772455,11.2926876 C393.49181,8.53160991 396.130416,7.01459275 399.226884,6.85989844 C400.825679,6.78002751 402.521362,7.78701024 404.097675,8.47592552 C404.865731,8.81163049 405.582257,9.44720315 406.112147,10.1139241 C408.182646,12.7191444 407.82555,16.4757606 405.35802,18.9776569 C403.119179,21.2476792 403.012241,21.4350153 405.740373,22.9923742 C409.41381,25.0893977 413.256603,26.894235 417.058269,28.7602443 C418.859481,29.6443585 420.44796,30.7243547 420.97547,32.7504808 C421.155009,33.4403935 421.092547,34.5300212 420.662984,34.9617771 C420.04057,35.587371 418.916609,36.2125792 418.123911,36.0884821 C413.329908,35.3379921 409.512903,32.2430334 405.153708,30.4184317 C404.89716,30.3110683 404.65657,30.1657577 404.318253,29.9478297 Z M399.894657,15.0521909 C400.001508,14.4368182 400.108359,13.82144 400.21521,13.2060727 C399.599848,13.246665 398.86569,13.0887749 398.394647,13.3705696 C397.506428,13.9018699 396.714039,14.6341328 395.999937,15.3938469 C395.745902,15.6641256 395.787779,16.2595905 395.814095,16.6994627 C395.818415,16.7713247 396.514884,16.9534371 396.771388,16.8316709 C397.778359,16.3536139 398.737328,15.7743926 399.894657,15.0521909 Z M232.883055,15.4133026 C232.401565,12.8261496 231.745231,10.4363223 231.51209,8.00590239 C231.394748,6.78271089 232.249709,5.66989695 233.57796,5.13218011 C235.083304,4.52276888 236.361722,5.1345273 237.338256,6.06072153 C238.113167,6.79566233 238.678321,7.9085727 238.970486,8.95581191 C239.333245,10.2560115 239.973909,10.2313154 240.884697,9.74572608 C242.020957,9.1399353 243.148069,8.50994462 244.236567,7.82297137 C247.7019,5.63594393 250.910113,6.85162766 254.006449,8.63215165 C254.514497,8.92430539 254.689739,9.87789025 254.917722,10.559582 C255.767856,13.1013046 256.239824,15.5429542 253.315489,17.2299423 C252.582102,17.6530144 252.374726,18.1770695 253.414009,18.85875 C255.896504,20.4871002 258.211362,22.3684002 260.650218,24.0667281 C262.68133,25.4811124 263.514163,27.5771992 262.864661,29.8867951 C262.519137,31.1154632 259.383371,32.1999667 258.034137,31.3612169 C255.214735,29.6084938 252.316298,27.9724954 249.583117,26.0951902 C247.811087,24.8780657 246.331222,23.243781 244.614049,21.9360766 C243.133941,20.8089199 241.896672,21.1321226 241.614491,22.8899644 C241.19143,25.5253967 239.256347,26.5733133 237.334509,27.6678838 C235.283891,28.8358091 232.740433,27.256162 232.574779,25.3654125 C232.437094,23.7938871 232.779731,22.1828053 232.875473,20.5871902 C232.91984,19.8477864 232.883055,19.1035006 232.883055,18.3614297 L232.883055,15.4133026 Z M315.847219,19.4757481 C314.566089,16.6298324 313.308036,13.9004815 312.214998,11.1065803 C311.726411,9.85769575 311.477048,8.52749944 313.244098,7.7770921 C314.847212,7.09629846 316.036676,7.61456503 316.788709,8.91970995 C317.728789,10.5511844 318.366698,12.3539937 319.202924,14.0493519 C319.567138,14.7876813 320.10029,15.4426714 320.556698,16.1355151 C321.30397,15.5426841 322.226836,15.0744076 322.756726,14.3273885 C323.521961,13.2486103 324.043784,11.9865179 324.595119,10.7689857 C325.644981,8.450491 328.828839,8.27262703 330.34992,10.5720069 C331.606034,12.4707957 332.503443,14.6052988 333.583037,16.6229172 C334.586262,18.4977871 335.681659,18.5080689 336.891841,16.7854912 C339.571243,12.9716367 342.764777,9.65094255 346.593442,6.96482617 C348.058255,5.93713689 349.606511,6.2254499 350.970952,6.99080596 C352.721449,7.97272069 352.80454,9.98599175 351.259039,11.6581965 C350.550756,12.4245719 349.697448,13.0659469 348.867481,13.7092663 C345.203699,16.5492259 342.579551,20.1653852 340.862776,24.4447779 C339.980926,26.6429054 338.509017,27.8512359 336.090063,27.2915367 C335.196246,27.0847283 334.266966,26.5895403 333.593749,25.9666353 C332.342308,24.8087105 331.247506,23.4774565 330.123435,22.1870372 C328.809752,20.6788992 327.374783,20.8996428 326.384495,22.6361995 C325.575577,24.0547712 324.722798,25.5311104 323.566262,26.6467844 C322.260558,27.9063638 320.886066,27.5589778 319.918546,26.0378032 C318.559439,23.9009417 317.261559,21.7251631 315.847219,19.4757481 Z M227.556738,16.9480042 C225.881331,20.6883382 222.900331,22.7784137 219.453005,24.4685647 C215.941917,26.1899907 212.662427,25.2428469 209.29374,24.0979866 C205.864685,22.9326013 203.449258,19.5807144 203.242808,15.9486365 C202.890826,9.75559476 207.775987,4.23495455 213.110415,2.5675518 C215.341917,1.87004074 217.722521,2.16297953 219.998808,2.77976022 C222.38609,3.42662287 224.735793,4.14413813 226.699463,5.77863218 C228.178535,7.00977451 228.113208,8.69026628 228.471207,10.3623168 C228.974362,12.7124386 228.465917,14.7638833 227.556738,16.9480042 Z M221.147101,11.0800274 C219.101905,8.28661159 214.393638,9.57047941 212.664719,12.5504547 C211.325976,14.8579562 212.839035,17.5020557 215.521809,17.5799348 C218.113822,17.6551799 221.307223,14.1793173 221.147101,11.0800274 Z M361.797991,6.38564603 C365.614556,5.09083272 368.846439,6.21720404 371.773772,8.27887525 C376.683794,11.7369736 378.381108,19.2141313 375.806727,24.205537 C374.285691,27.1546727 371.812694,29.3008789 368.024958,29.1621968 C365.532919,29.0709449 363.135874,28.9613556 360.686725,28.1437695 C357.980279,27.2402878 356.80902,24.9426654 354.99507,23.2225729 C354.929478,23.1603752 354.939264,23.0028654 354.939132,22.889755 C354.936311,20.1631702 354.431591,17.3133863 355.05903,14.7397603 C355.933981,11.1507324 357.789985,7.87589836 361.797991,6.38564603 Z M363.061863,20.8299077 C363.682955,21.2102826 364.36836,21.5162332 364.912223,21.9860086 C366.164502,23.0676526 368.42988,22.9215591 369.49874,21.6151607 C370.972259,19.8141422 371.367836,15.7428034 370.077868,13.8561091 C368.986968,12.2605712 367.252097,11.4242126 365.378285,11.5018378 C363.655581,11.5731986 362.714245,12.8731558 362.460034,14.5748229 C362.223543,16.1585143 361.932039,17.7426409 361.855516,19.3357324 C361.835327,19.756215 362.520203,20.2105513 363.061863,20.8299077 Z M67.4061101,12.0730697 C67.0035791,15.329583 66.0452612,18.0877679 63.5465828,20.3654164 C61.0774769,22.6161098 53.4926034,23.761433 50.8225628,20.2756302 C50.0570966,19.2762957 48.6901039,18.6981155 48.0488615,17.6512348 C46.588303,15.2667411 46.0601211,12.6780891 47.2610519,9.9251114 C48.7032178,6.61911495 50.1700799,3.43263168 53.6303052,1.61207726 C58.1899329,-0.786916305 62.7816236,0.545189171 65.3480864,3.67854216 C66.6112805,5.22073998 67.3322425,6.957261 67.482705,8.9204318 C67.5605068,9.93560803 67.4963866,10.9616554 67.4061101,12.0730697 Z M59.9131551,11.9827931 C59.9131551,10.9055135 59.8566275,9.82446494 59.9280265,8.75194034 C60.0100327,7.51996855 59.2093901,7.16935893 58.3830984,7.51427968 C56.628816,8.24656996 55.0745482,9.4238681 54.5329715,11.3347402 C53.9312638,13.4577659 55.4939507,15.3542296 57.6485873,15.0740877 C59.4804953,14.8358998 59.315161,13.3272495 59.9131551,11.9827931 Z" id="workworkwork" fill="#2232A3" fill-rule="nonzero"></path>
    </g>
</svg>