<?xml version="1.0" encoding="UTF-8"?>
<svg width="40px" height="26px" viewBox="0 0 40 26" version="1.1" xmlns="http://www.w3.org/2000/svg" xmlns:xlink="http://www.w3.org/1999/xlink">
    <!-- Generator: Sketch 42 (36781) - http://www.bohemiancoding.com/sketch -->
    <title>discovery-logo</title>
    <desc>Created with Sketch.</desc>
    <defs>
        <circle id="path-1" cx="11" cy="11" r="11"></circle>
    </defs>
    <g id="Page-1" stroke="none" stroke-width="1" fill="none" fill-rule="evenodd">
        <g id="discovery-logo">
            <g id="Group" transform="translate(0.000000, 4.000000)">
                <mask id="mask-2" fill="white">
                    <use xlink:href="#path-1"></use>
                </mask>
                <g id="Mask"></g>
                <path d="M14.3252,13.3709 C14.1032,13.3289 13.7592,13.5589 13.8892,13.8039 C14.0382,13.6549 14.1662,13.5289 14.3252,13.3709 L14.3252,13.3709 Z M11.2092,17.8069 C11.2802,17.6979 11.3402,17.6039 11.4012,17.5109 L11.3492,17.4329 C11.1852,17.5209 11.0202,17.6079 10.8552,17.6959 C10.8642,17.7139 10.8722,17.7319 10.8802,17.7499 C10.9822,17.7679 11.0842,17.7859 11.2092,17.8069 L11.2092,17.8069 Z M11.8612,8.2129 C12.0122,7.7879 12.0122,7.7879 11.8152,7.7049 C11.7662,7.8559 11.7172,8.0039 11.6662,8.1619 C11.7312,8.1789 11.7972,8.1959 11.8612,8.2129 L11.8612,8.2129 Z M4.9442,11.2919 C5.2242,11.1019 5.1982,10.8669 4.8672,10.5849 C4.8432,10.5979 4.8192,10.6099 4.7942,10.6229 C4.8392,10.8219 4.8832,11.0209 4.9442,11.2919 L4.9442,11.2919 Z M1.6432,17.2839 C1.6232,17.3079 1.6032,17.3319 1.5832,17.3559 L2.0142,17.7519 C2.0492,17.4279 1.8902,17.2699 1.6432,17.2839 L1.6432,17.2839 Z M11.9242,19.9129 C11.9722,20.0059 12.0072,20.1039 12.0282,20.2059 C12.3792,20.1779 12.3792,20.1779 12.3662,19.8559 C12.2152,19.8459 12.0682,19.8639 11.9242,19.9129 L11.9242,19.9129 Z M15.2732,12.3479 C15.1242,12.5129 15.0132,12.6359 14.9292,12.7289 C15.0492,12.8409 15.1362,12.9229 15.2432,13.0239 C15.3172,12.9299 15.3982,12.8279 15.4852,12.7169 L15.2402,12.7169 C15.2482,12.6229 15.2572,12.5279 15.2732,12.3479 L15.2732,12.3479 Z M3.7382,10.1969 C4.1422,10.4329 4.4242,10.7709 4.5832,11.2079 C4.6202,11.1839 4.6582,11.1609 4.6962,11.1359 C4.5332,10.8769 4.3702,10.6179 4.1912,10.3339 C4.1912,10.3339 4.2212,10.2789 4.2892,10.1579 C4.0682,10.2879 3.9282,9.9319 3.7382,10.1969 L3.7382,10.1969 Z M5.1232,10.1459 C4.8972,9.9839 4.2912,9.9129 4.0922,10.0289 C4.4112,10.2549 4.7202,10.5489 5.1232,10.1459 L5.1232,10.1459 Z M9.3722,9.7969 C9.8002,8.8679 9.7292,8.9459 8.7412,9.4589 C8.9572,9.5609 9.1672,9.6739 9.3722,9.7969 L9.3722,9.7969 Z M12.6012,7.5679 C12.7612,7.8169 12.8552,8.0269 13.1412,7.8549 C13.1472,7.9419 13.1502,7.9959 13.1542,8.0629 C13.2262,8.0349 13.2812,8.0139 13.3322,7.9939 C13.1302,7.6919 13.4912,7.1879 13.6132,6.8799 C13.5692,6.8639 13.5242,6.8479 13.4792,6.8319 C13.4522,6.9129 13.4242,6.9959 13.3832,7.1169 C13.2662,7.0789 13.1292,7.0339 12.9052,6.9589 C13.0152,7.2249 13.0892,7.4999 13.1252,7.7849 C12.9282,7.7039 12.7972,7.6499 12.6012,7.5679 L12.6012,7.5679 Z M2.4862,10.9019 C2.3992,10.6569 1.9462,9.7249 1.7832,9.6899 C1.9332,9.8279 1.9332,9.8279 1.8492,10.3859 L1.7592,10.4749 L1.6582,10.1339 C1.6432,10.1619 1.6282,10.1899 1.6132,10.2179 C1.5362,10.3389 1.4602,10.4609 1.3522,10.6309 C1.4302,10.6639 1.5162,10.6999 1.6022,10.7359 C1.9152,10.9149 1.6982,11.2509 1.8252,11.5869 C1.8612,11.2869 1.8892,11.0549 1.9172,10.8239 C1.9362,10.8249 1.9552,10.8259 1.9742,10.8259 C2.0202,10.9759 2.0662,11.1269 2.1202,11.3019 C2.2242,11.1799 2.2872,11.1049 2.3582,11.0209 L2.1402,11.0209 C2.1372,10.9909 2.1352,10.9599 2.1332,10.9299 C2.2472,10.9209 2.3622,10.9119 2.4862,10.9019 L2.4862,10.9019 Z M11.1152,18.4269 C11.2982,18.4429 11.4242,18.4539 11.5702,18.4669 C11.5212,18.5579 11.4792,18.6369 11.4302,18.7279 C11.7042,18.7789 11.9552,18.8249 12.2812,18.8849 C12.0842,19.0659 11.9552,19.1849 11.8402,19.2899 C12.5792,19.8589 13.7262,19.8349 13.6562,18.8419 C13.8062,18.9629 13.8852,18.7999 13.9502,18.6959 C14.0732,18.7059 14.1652,18.7139 14.3072,18.7249 C14.0992,18.5889 13.8822,18.4699 13.6552,18.3699 C13.5432,18.4379 13.4292,18.5069 13.3182,18.5749 C13.2262,18.2439 13.5412,18.3119 13.6862,18.1559 C13.5512,18.1289 13.4552,18.1099 13.3592,18.0909 C13.2662,17.9099 13.1182,17.7969 12.9142,17.7509 C13.0242,17.7249 13.1002,17.7059 13.2572,17.6669 C13.0882,17.5619 12.9852,17.4969 12.8842,17.4339 C12.9052,17.3919 12.9272,17.3499 12.9712,17.2669 C12.5792,17.2409 12.4352,17.0309 12.5382,16.6359 C11.8232,17.0059 11.6962,17.5639 11.1492,18.0769 C11.1632,18.0919 11.1772,18.1069 11.1902,18.1229 C11.2622,18.0919 11.3332,18.0599 11.4052,18.0289 C11.4132,18.0399 11.4222,18.0509 11.4302,18.0609 C11.3382,18.1669 11.2472,18.2739 11.1152,18.4269 L11.1152,18.4269 Z M0.2312,11.2849 L-0.4088,11.2849 C-0.4668,11.5659 -0.5358,11.8979 -0.6018,12.2159 C-0.1998,12.4349 -0.0648,12.7819 -0.1938,13.2579 C0.5042,13.2609 1.2032,14.8079 0.7622,15.3699 C0.9272,15.4099 1.0502,15.4389 1.2072,15.4759 C1.0982,15.5599 1.0262,15.6159 0.9522,15.6729 C1.0772,15.7879 1.1852,15.8869 1.2752,15.9709 C1.0432,16.2869 1.2032,16.5389 1.7552,16.7269 C1.9382,16.5969 2.1102,16.4519 2.2682,16.2929 L2.5532,16.0319 C2.5222,15.9989 2.4912,15.9669 2.4602,15.9349 C2.5382,15.9419 2.6162,15.9499 2.6872,15.9559 C2.7562,16.0459 2.8212,16.1299 2.8872,16.2149 C2.8992,16.2069 2.9112,16.1999 2.9232,16.1919 C2.9112,16.1359 2.9002,16.0799 2.8862,16.0119 C2.9452,16.0279 2.9882,16.0389 3.0362,16.0529 L3.0362,15.7519 C3.1112,15.8139 3.1532,15.8499 3.2092,15.8959 C3.2202,15.8169 3.2292,15.7569 3.2312,15.7389 C3.4482,15.8509 3.6552,15.9579 3.8722,16.0709 C3.9242,15.9329 3.9482,15.8699 3.9662,15.8209 C4.1232,15.8629 4.2502,15.8199 4.3482,15.6939 C4.3782,15.8069 4.4022,15.8949 4.4382,16.0309 C4.5472,15.8349 4.6222,15.6999 4.6772,15.6009 C4.8902,15.7729 3.7282,14.6189 3.5222,14.7729 C3.6852,13.8429 3.1222,13.6879 2.2952,13.6879 C2.3482,13.7799 2.4022,13.8749 2.4572,13.9709 C1.9192,15.3719 1.8912,12.1419 1.7702,11.8569 C1.2972,11.8959 1.6422,11.4599 1.4602,11.2989 C1.3842,11.5249 1.3202,11.7129 1.2562,11.8999 C1.2852,11.8919 1.3152,11.8839 1.3442,11.8759 C1.3862,12.0249 1.4282,12.1739 1.4912,12.3999 C1.3332,12.2579 1.2212,12.1579 1.1622,12.1049 C0.9912,12.1449 0.8662,12.1739 0.7062,12.2109 C0.6722,12.5229 1.0792,12.5509 0.2222,12.1969 C0.2302,12.1699 0.2372,12.1429 0.2442,12.1159 C0.2862,12.0929 0.3282,12.0689 0.3602,12.0509 C0.2592,11.8139 0.2182,11.5629 0.2362,11.2989 C0.4082,11.2889 0.5812,11.2799 0.7322,11.2719 C0.6452,11.1099 0.5432,10.9209 0.4412,10.7309 C0.5102,10.6519 0.5652,10.5889 0.6252,10.5199 C0.3562,10.2719 0.0782,10.4189 -0.1858,10.4029 C-0.1908,10.4249 -0.1958,10.4469 -0.1998,10.4689 C-0.1368,10.5019 -0.0728,10.5349 -0.0638,10.5399 C0.0462,10.8179 0.1382,11.0519 0.2312,11.2849 L0.2312,11.2849 Z M15.9792,5.2329 C16.2052,5.0999 14.3662,5.2369 14.4802,5.1929 C14.3932,5.3499 14.3012,5.5179 14.2082,5.6859 C14.2282,5.6999 14.2482,5.7129 14.2682,5.7269 C14.3092,5.6959 14.3492,5.6639 14.3362,5.6749 C14.4842,5.7599 14.5942,5.8229 14.7132,5.8909 C14.5822,6.0009 14.4382,6.1209 14.3032,6.2359 L14.3032,6.6999 C14.2302,6.6859 14.1612,6.6719 14.0622,6.6529 C14.1472,6.8579 14.1292,6.9719 13.8812,6.8969 L13.8812,7.1299 C14.0052,7.1469 14.1142,7.1619 14.2232,7.1759 C14.2292,7.2049 14.2352,7.2339 14.2412,7.2619 C14.0972,7.3089 13.9542,7.3569 13.7952,7.4089 C13.8032,7.4519 13.8182,7.5349 13.8292,7.6009 C14.0162,7.5839 14.1802,7.5699 14.3452,7.5559 C14.3662,7.5199 15.1542,6.5739 15.1902,6.5739 C15.1662,6.6799 15.1412,6.7979 15.1152,6.9159 C15.1472,6.9299 15.1792,6.9429 15.2112,6.9559 C15.4992,6.5279 15.7872,6.0989 16.1002,5.6329 C15.9132,5.5939 15.7852,5.5659 15.6662,5.5409 C15.7772,5.4289 15.8762,5.3279 15.9752,5.2279 C16.1022,5.3109 16.2282,5.3939 16.4132,5.5149 C16.5052,5.2819 16.4482,5.0819 16.2422,4.9159 C16.3292,4.8919 16.3832,4.8789 16.4412,4.8639 C16.4712,4.9649 16.4952,5.0469 16.5382,5.1879 C16.6522,5.0329 16.7372,4.9169 16.8312,4.7889 C16.6462,4.7579 16.5182,4.7369 16.3862,4.7149 C16.5302,4.3849 16.4552,4.0439 16.2212,3.9329 C16.1952,4.1599 16.1692,4.3839 16.1342,4.6939 C15.9792,4.5139 15.8652,4.3789 15.7072,4.1939 C15.7652,4.5499 15.8562,4.8959 15.9792,5.2329 L15.9792,5.2329 Z M3.5212,17.6629 C3.3502,17.7989 3.1822,17.7879 3.0182,17.6289 C3.0252,17.1539 2.6482,17.1629 2.3252,17.0999 C2.4952,17.3469 2.7282,17.5219 3.0232,17.6249 C3.2222,17.9799 3.9232,18.4639 4.1642,18.7519 C4.1732,18.7319 4.1802,18.7109 4.1892,18.6909 C4.4462,18.8189 4.7022,18.9469 4.9592,19.0739 L5.0092,19.0199 C4.4702,18.5569 4.2202,18.0159 3.8212,17.4159 C3.8462,17.3939 3.8712,17.3709 3.8972,17.3479 C3.9282,17.4329 3.9592,17.5169 3.9902,17.6009 C4.0122,17.5789 4.0352,17.5579 4.0582,17.5359 C3.9062,16.9699 3.4572,16.6179 3.0932,16.2179 C3.0082,16.2599 2.9262,16.3019 2.8422,16.3439 C2.8842,16.4339 2.9262,16.5239 2.9792,16.6379 C2.5822,16.5399 2.8932,16.9329 2.6732,16.9439 C3.0482,17.0509 3.2662,17.2629 3.3292,17.5789 C3.3932,17.6069 3.4572,17.6349 3.5212,17.6629 L3.5212,17.6629 Z M5.8552,13.1419 C6.1532,13.1729 6.4502,13.1829 6.7492,13.1699 C6.6832,13.2569 6.6232,13.3349 6.5442,13.4399 C6.6462,13.4569 6.7122,13.4679 6.7922,13.4819 C6.7812,13.5299 6.7702,13.5769 6.7582,13.6299 C6.8642,13.6819 6.9712,13.7349 7.1142,13.8049 C7.2422,13.4779 7.4482,13.2659 7.8062,13.4339 L7.8062,13.7009 C8.0432,13.7739 8.2502,13.8379 8.4562,13.9009 L8.4562,14.0029 C7.7062,14.3439 9.1962,14.6929 9.4052,14.1969 C9.2642,14.1569 9.1382,14.1209 9.0112,14.0859 C9.0132,14.0669 9.0142,14.0479 9.0162,14.0289 C9.1742,14.0559 9.3322,14.0839 9.5072,14.1139 C9.5472,14.0439 9.5892,13.9709 9.6372,13.8879 C9.7072,14.0209 9.7712,14.1429 9.8402,14.2749 C9.7452,14.2929 9.6842,14.3049 9.5522,14.3299 C9.7042,14.4039 9.7922,14.4469 9.9122,14.5039 C9.8312,14.5579 9.7672,14.5999 9.7042,14.6419 C9.7092,14.6579 9.7142,14.6739 9.7192,14.6899 C9.8292,14.6629 9.9392,14.6359 10.0482,14.6089 C9.9802,14.2669 10.3012,13.9409 10.7012,13.9029 C10.9182,14.1969 11.3342,13.8809 11.5212,13.7829 C11.6832,14.1529 9.6182,15.3229 9.9742,14.8729 C10.3052,14.6409 10.6592,14.5879 11.0372,14.7139 C11.0472,14.6459 11.0552,14.5829 11.0682,14.4949 C11.1482,14.5339 11.2072,14.5629 11.2982,14.6089 C11.3992,14.3359 11.5032,14.0439 11.9182,14.2159 C11.9032,14.0889 11.8932,14.0139 11.8872,13.9639 C12.7412,13.3259 13.2122,12.6179 14.1652,12.0979 C14.2062,12.2449 14.2282,12.3259 14.2552,12.4219 L14.5332,12.4219 C14.4442,12.5059 14.3642,12.5799 14.2852,12.6559 C14.7092,12.6509 14.9642,12.3709 15.2372,12.1249 C15.4522,11.9869 15.6662,11.8499 15.8812,11.7119 C15.8712,11.6909 15.8622,11.6699 15.8532,11.6489 C15.7362,11.6729 15.6182,11.6969 15.4962,11.7219 C15.4922,11.6739 15.4882,11.6209 15.4822,11.5529 C15.3022,11.7219 15.1682,11.8849 15.2422,12.1289 C15.0452,12.1319 14.8162,12.2329 14.7072,11.9579 C15.1342,11.7889 15.3342,11.4899 15.2062,11.2109 C15.4742,10.8839 15.7352,11.3549 15.9832,11.2119 C16.0882,11.0639 16.1912,10.9209 16.3232,10.7369 C16.1042,10.4329 16.1982,10.2489 16.6052,10.1839 C16.6042,10.1759 16.5962,10.1029 16.5872,10.0099 C15.8722,10.1999 15.3002,8.8309 14.7712,8.5979 C15.7852,8.1339 14.3852,8.2939 13.9202,8.5579 C14.0572,8.7959 14.2532,8.8189 14.5032,8.7709 C14.2672,8.9049 14.0312,9.0379 13.7672,9.1879 C13.8292,9.2889 13.8902,9.3909 13.9582,9.5019 C13.9322,9.6319 13.8972,9.8059 13.8622,9.9789 L13.9262,10.0079 C14.1812,9.7839 14.4352,9.5599 14.6902,9.3359 C14.7132,9.3499 14.7362,9.3639 14.7582,9.3779 C14.7442,9.5279 14.7292,9.6789 14.7142,9.8419 C14.8662,9.8719 15.0282,9.9049 15.2682,9.9529 C14.9492,10.0819 14.6982,10.1839 14.4532,10.2839 L14.4532,10.8289 C15.2732,9.8379 14.7912,10.7239 14.4622,11.1469 C14.3822,10.9729 14.3142,10.8259 14.2512,10.6879 C14.0972,10.7339 13.9442,10.7799 13.7762,10.8299 C13.7922,10.8939 13.8092,10.9559 13.8332,11.0459 C13.7032,10.9649 13.6002,10.9019 13.4842,10.8299 C13.6032,10.6129 13.4802,10.4789 13.2492,10.3699 C13.1722,10.4919 13.0932,10.6169 13.0312,10.7139 C12.9152,10.7689 12.8072,10.8199 12.6372,10.9019 C12.5412,10.7759 12.4092,10.6009 12.2342,10.3699 C12.0292,10.6909 11.2642,11.3279 11.0002,11.3189 C11.0292,11.1009 10.8262,10.7739 10.9202,10.3659 C10.7642,10.6399 10.5682,10.7059 10.3302,10.5639 C10.4342,10.4179 10.5332,10.2679 10.6272,10.1159 C10.5342,10.0449 10.4592,9.9869 10.3522,9.9049 C10.2932,10.0349 10.2442,10.1419 10.1972,10.2459 C10.0732,10.2619 9.9492,10.2789 9.8242,10.2949 L9.8102,10.2899 C9.7552,10.2399 9.7002,10.1899 9.6442,10.1399 C9.6162,10.0869 9.5882,10.0349 9.5602,9.9829 L9.5662,9.9829 C9.5502,10.0239 9.5342,10.0659 9.5182,10.1069 C9.5632,10.1149 9.6082,10.1229 9.6532,10.1309 C9.6232,10.1819 9.5932,10.2329 9.5322,10.3359 C9.1392,9.9349 8.7822,9.7559 8.3202,9.4689 C8.4042,9.3149 8.4852,9.1679 8.5662,9.0199 C8.6272,9.0879 8.6892,9.1559 8.7682,9.2419 C8.9412,9.1749 9.1452,9.0969 9.3752,9.0079 C9.4192,9.0269 8.4752,8.8479 8.7362,8.6559 C8.7322,8.6549 10.3032,8.4779 10.5132,8.4779 C10.4782,8.2989 10.4472,8.1419 10.4202,8.0049 C10.7192,7.8389 10.9672,7.7019 11.1692,7.5899 C11.0272,6.3229 10.4822,7.4619 9.6432,6.7159 C9.8872,6.6849 10.1312,6.6529 10.3822,6.6209 C10.2052,6.4659 10.4082,6.4109 10.5002,6.3069 C10.5792,6.3299 10.6632,6.3549 10.7822,6.3899 L10.7822,6.1249 C10.8852,6.2239 10.9862,6.3179 11.0992,6.4259 C11.2062,6.2749 11.2842,6.1629 11.4022,5.9959 C11.4122,5.9949 11.4972,5.9849 11.5982,5.9739 C11.7992,6.2969 12.0852,6.4549 12.4572,6.4479 C12.4072,6.1829 12.1672,6.3019 12.0032,6.2409 C12.0552,6.1689 12.1082,6.0969 12.1742,6.0059 C12.0822,5.9919 12.0162,5.9809 11.9142,5.9649 C11.9732,5.9019 12.0102,5.8629 12.0772,5.7909 C11.8612,5.7339 11.6632,5.6829 11.4652,5.6309 L11.4742,5.6269 L11.0742,5.6269 C11.0732,5.6029 11.0722,5.5789 11.0722,5.5549 L11.2612,5.4839 C11.2582,5.4699 11.2562,5.4549 11.2542,5.4399 L10.8072,5.4399 C10.7392,5.3139 10.6842,5.2129 10.6412,5.1339 C10.7622,4.9739 10.8802,4.8169 10.9972,4.6599 C10.9882,4.6449 10.9772,4.6309 10.9672,4.6159 C10.8962,4.6589 10.8252,4.7019 10.7262,4.7609 C10.9132,4.1029 11.4832,3.7669 11.5762,3.0669 C11.6202,3.0839 11.6572,3.1119 11.6852,3.1469 C11.8352,2.9959 11.8882,2.7369 12.1952,2.6929 C12.1962,2.6799 12.2022,2.6179 12.2042,2.5999 C12.3362,2.5889 12.4452,2.5799 12.5542,2.5719 C12.5532,2.5429 12.5522,2.5139 12.5502,2.4849 C12.4792,2.4789 12.4082,2.4739 12.2812,2.4639 C12.4542,2.1739 12.5282,1.8549 12.5022,1.5059 C12.5682,1.5229 12.6342,1.5399 12.7002,1.5579 C12.7642,1.2859 12.6822,1.2429 12.1992,1.1739 C12.2522,1.2469 12.2962,1.3079 12.3412,1.3699 C12.2112,1.2989 12.0082,1.2909 12.0762,1.0279 C12.2482,1.0189 12.4082,1.0609 12.5542,1.1529 C12.1872,0.7649 11.6962,0.7569 11.5882,1.0929 C11.5182,1.0139 11.5182,1.0139 11.8252,0.5789 C11.6202,0.2319 9.9632,0.2279 9.5752,0.1409 C9.5622,0.3749 9.0982,0.3339 9.2802,0.6979 C9.1332,0.6869 9.0262,0.6799 8.9192,0.6729 C8.9172,0.6519 8.9162,0.6319 8.9142,0.6109 C8.9942,0.5729 9.0742,0.5339 9.2182,0.4649 C8.6592,0.2699 8.6142,0.0249 7.9862,0.1779 L7.9902,0.1829 C15.7292,-6.3071 28.4422,2.2529 23.9012,18.1979 C21.9862,24.9189 7.1312,28.6539 1.1922,16.8809 C1.2142,16.8689 1.2372,16.8559 1.2592,16.8439 C1.3272,16.8979 1.3962,16.9529 1.4642,17.0069 C1.4882,16.9789 1.5112,16.9509 1.5332,16.9229 C1.3252,16.7679 1.1172,16.6139 0.8432,16.4099 C0.5252,16.4329 0.5222,16.0299 0.3182,15.7959 C0.6342,15.5119 0.2712,15.3029 0.2572,15.0259 C-1.7228,15.5539 -0.7858,8.3029 -0.7298,8.1209 C-0.4808,8.1239 -0.4478,8.3509 -0.3248,8.4769 C-0.3698,8.5159 -0.4198,8.5589 -0.4588,8.5929 C-0.2988,8.6779 -0.1478,8.7579 0.0462,8.8619 C0.1812,8.7729 0.3642,8.6519 0.5572,8.5249 C0.5702,8.6399 0.5872,8.7839 0.6042,8.9369 C0.7522,8.9019 0.8462,8.8789 0.9852,8.8459 C0.9482,8.9599 0.9272,9.0219 0.9032,9.0959 C1.0362,9.0739 1.1662,9.0529 1.3632,9.0209 C1.2102,9.2219 1.0992,9.3669 0.9612,9.5479 C1.3092,9.2969 1.6882,9.1119 2.0992,8.9919 C2.0572,9.1979 2.0222,9.3689 1.9872,9.5389 C2.7252,9.2169 4.6272,8.4689 2.9612,9.3249 C3.0182,9.3759 3.0792,9.4309 3.1422,9.4879 C3.6092,9.2379 3.8432,8.7929 4.1152,8.3709 C4.0842,8.4679 4.0532,8.5639 4.0132,8.6909 C4.2972,8.4539 4.5642,8.2309 4.8312,8.0079 C4.8642,8.0289 4.8962,8.0489 4.9292,8.0699 C4.8972,8.2359 4.8652,8.4029 4.8262,8.6059 C4.9472,8.5609 5.0292,8.5309 5.1122,8.5009 L5.1412,8.5409 C5.0422,8.6289 4.9832,8.7409 4.9632,8.8739 C5.1262,8.8789 5.2302,8.8099 5.2782,8.6649 C5.2812,8.8569 5.3442,8.9709 5.5462,8.9299 L5.5392,8.9259 L5.5772,9.1589 C5.5942,9.1469 5.6102,9.1339 5.6272,9.1219 C5.7312,9.2099 5.8352,9.2989 5.9342,9.3839 C6.1282,9.0659 6.4352,9.2619 6.7462,9.3749 C6.9642,9.7219 7.2052,9.7839 7.4682,9.5149 C7.5042,9.5599 7.5402,9.6059 7.5792,9.6559 C7.4482,9.7349 7.3202,9.8119 7.1922,9.8899 C7.1952,9.8679 7.1972,9.8459 7.2002,9.8249 C7.0272,9.7809 6.8542,9.7379 6.6812,9.6949 C6.6712,9.7149 6.6612,9.7349 6.6522,9.7549 C6.7422,9.8139 6.8312,9.8729 6.9272,9.9369 C6.8802,10.0039 6.8182,10.0559 6.7422,10.0919 C6.6372,9.9419 6.5322,9.7919 6.3992,9.6039 C6.1562,10.2579 6.1492,10.3459 6.4692,10.9209 C6.3192,10.9049 6.1692,10.8889 6.0062,10.8709 C6.0752,11.0669 6.1302,11.2239 6.1842,11.3799 C6.1662,11.3879 6.1482,11.3949 6.1292,11.4029 C6.2022,11.4499 6.2762,11.4959 6.3672,11.5539 C6.3802,11.5139 6.3922,11.4709 6.4252,11.3619 C6.4622,11.4599 6.4882,11.5279 6.4982,11.5559 C6.2482,11.7589 5.9662,11.9879 5.6632,12.2339 C5.7382,12.3019 5.7742,12.3349 5.8092,12.3679 C5.6152,12.4699 5.4172,12.5729 5.2072,12.6839 C5.3022,13.0269 5.6822,12.9459 5.8602,13.1459 L5.8552,13.1419 Z" id="Fill-1" fill="#FFFFFF" mask="url(#mask-2)"></path>
                <path d="M3.6616,5.1277 L3.4826,5.6947 C3.8896,5.7347 4.0766,5.8337 4.0286,6.1337 C4.1706,6.1187 4.3076,6.1047 4.4336,6.0907 C4.4456,6.2107 4.4576,6.3267 4.4706,6.4527 C4.4106,6.4667 4.3196,6.4867 4.2296,6.5067 C4.2236,6.5367 4.2186,6.5667 4.2126,6.5967 C4.4966,6.7617 4.7176,6.6727 4.8736,6.3317 C4.9426,6.3407 4.9946,6.3467 5.0466,6.3537 L5.0426,6.3487 C5.1686,7.7677 2.1796,6.5557 1.9096,6.2467 C1.7776,6.3067 1.6836,6.3497 1.5196,6.4227 C1.6546,6.6657 1.7976,6.9237 1.9706,7.2357 C1.6246,6.9977 1.3546,6.7777 1.4266,6.2847 C1.4326,6.2797 1.4956,6.2237 1.5416,6.1847 C1.5926,5.8917 1.2276,5.6917 1.4006,5.3637 C1.4766,5.4207 1.5366,5.4657 1.6266,5.5347 C1.6666,5.3757 1.6996,5.2427 1.7576,5.0107 C1.8046,5.1607 1.8346,5.2537 1.8636,5.3477 C1.9016,5.3217 1.9386,5.2957 1.9756,5.2697 C1.9756,4.0997 2.1526,1.6777 3.1426,4.4157 C2.9116,4.3677 2.7646,4.3727 2.8336,4.5777 C2.9436,4.8617 3.0786,5.1337 3.2386,5.3927 C3.2766,5.2357 3.3006,5.1387 3.3286,5.0197 C3.4546,5.0617 3.5606,5.0977 3.6676,5.1337 L3.6616,5.1277 Z" id="Fill-4" fill="#FFFFFF" mask="url(#mask-2)"></path>
                <path d="M4.6728,4.7127 C4.9158,5.0117 5.1658,5.0237 5.2788,4.7757 C5.0938,4.7567 4.9198,4.7387 4.6728,4.7127 L4.6728,4.7127 Z M3.6678,5.1337 C3.5738,4.8117 3.4818,4.4897 3.3818,4.1467 C3.5668,3.9867 3.5858,3.5407 4.1228,3.7337 C4.0588,3.6027 4.0208,3.5237 3.9708,3.4197 C4.0478,3.3457 5.1698,2.4567 5.3768,2.5317 C5.6008,2.2767 5.9668,2.2007 6.0398,2.3787 C6.1658,2.3367 6.2908,2.2947 6.4168,2.2527 L6.4458,2.3147 C6.2958,2.4227 6.1458,2.5307 5.9488,2.6737 C6.0988,2.6947 6.1898,2.7077 6.2828,2.7207 C6.3268,2.8497 6.3708,2.9807 6.4158,3.1097 C6.4018,3.1257 6.3868,3.1417 6.3728,3.1567 C6.1448,3.0157 5.9168,2.8757 5.6898,2.7347 C5.5828,2.8497 5.4838,2.9547 5.3558,3.0917 C5.6518,3.1567 5.9018,3.2117 6.1898,3.2747 C6.1978,3.3007 6.2198,3.3797 6.2328,3.4207 C5.8938,3.4037 5.5528,3.3877 5.1938,3.3697 C5.0558,3.8227 4.5158,3.6857 4.2328,4.0197 C4.5398,3.9927 4.8138,3.9677 5.0868,3.9437 C5.0958,3.9737 5.1058,4.0037 5.1148,4.0337 C4.9868,4.1107 4.8598,4.1887 4.6648,4.3057 C4.9338,4.3867 5.1308,4.4457 5.3278,4.5047 C5.3368,4.4807 5.3438,4.4557 5.3528,4.4307 C5.2838,4.3087 5.2148,4.1867 5.1248,4.0267 C5.4218,3.9957 5.6578,3.9707 5.9208,3.9437 C5.8618,4.0337 5.8218,4.0967 5.7698,4.1767 C5.8788,4.2187 5.9688,4.2547 6.1278,4.3167 C5.8798,4.3887 5.6988,4.4417 5.5178,4.4947 C5.5088,4.5217 5.4998,4.5477 5.4908,4.5747 C5.6378,4.6447 5.7858,4.7147 5.9158,4.7757 C5.8128,4.8587 5.6798,4.9667 5.5308,5.0877 C5.5038,5.0577 5.4588,5.0097 5.3978,4.9437 C5.2878,5.3737 5.1028,5.7667 4.8428,6.1257 C4.8208,6.1127 4.7978,6.1017 4.7758,6.0887 L4.7758,5.7377 C4.7588,5.7337 4.7418,5.7297 4.7248,5.7257 C4.7058,5.8347 4.6578,5.9287 4.5798,6.0077 C4.5588,5.9217 4.5378,5.8357 4.5128,5.7327 C4.4678,5.7837 4.4258,5.8327 4.3748,5.8907 C4.0868,5.6817 3.8488,5.4277 3.6618,5.1277 L3.6678,5.1337 Z" id="Fill-6" fill="#FFFFFF" mask="url(#mask-2)"></path>
                <path d="M5.5459,8.93 C5.4789,8.778 5.4539,8.62 5.4709,8.456 C5.7269,8.128 5.9649,7.823 6.2029,7.518 C6.2129,7.522 6.2249,7.525 6.2349,7.529 C6.1849,7.656 6.1339,7.784 6.0709,7.944 C6.3839,7.884 6.7539,8.269 6.9769,7.727 C7.0579,7.775 7.1599,7.836 7.2699,7.901 C7.3959,7.793 7.5229,7.684 7.6699,7.557 L7.6699,8.013 C7.5969,7.999 7.5189,7.983 7.4329,7.966 C7.4729,8.187 7.7939,8.464 7.9839,8.456 C7.8569,8.789 7.8569,8.789 7.6459,8.843 C7.8179,8.109 7.0099,8.106 6.5269,8.17 L6.5269,8.252 C6.5679,8.281 6.6099,8.31 6.6679,8.351 C6.3609,8.555 6.2899,8.207 6.1329,8.152 C5.9279,8.419 5.7339,8.672 5.5389,8.926 C5.5399,8.926 5.5459,8.93 5.5459,8.93" id="Fill-8" fill="#FFFFFF" mask="url(#mask-2)"></path>
                <path d="M9.643,6.7137 C9.567,6.9037 9.584,6.9427 9.78,6.9877 C9.776,7.0527 9.772,7.1207 9.768,7.1997 C9.547,7.2407 9.454,6.7967 9.165,7.0397 C9.205,7.1197 9.243,7.1947 9.28,7.2707 C9.268,7.2937 9.258,7.3167 9.247,7.3397 C9.148,7.2887 9.049,7.2367 8.903,7.1617 C8.88,7.2747 8.858,7.3837 8.827,7.5397 C8.958,7.4217 8.862,7.5467 8.539,7.9167 C8.507,7.9557 8.475,7.9957 8.442,8.0357 C8.335,7.9977 8.227,7.9597 8.1,7.9147 C8.141,7.7887 8.137,7.6637 8.087,7.5397 C8.505,7.4047 8.613,7.1817 8.388,6.8867 C8.971,7.0907 9.019,6.5117 9.379,6.2967 C9.48,6.4567 9.561,6.5857 9.643,6.7137" id="Fill-10" fill="#FFFFFF" mask="url(#mask-2)"></path>
                <path d="M3.437,2.9925 C3.424,3.0905 3.41,3.1945 3.399,3.2785 C3.11,3.2015 2.86,3.1355 2.691,3.0905 C2.839,2.9505 3.008,2.7935 3.176,2.6355 C3.154,2.6075 3.131,2.5795 3.109,2.5515 C3.205,2.6075 3.3,2.6625 3.396,2.7185 C3.417,2.7065 3.438,2.6955 3.459,2.6835 C3.418,2.5625 3.377,2.4415 3.33,2.3015 C3.366,2.2445 3.42,2.1625 3.482,2.0685 C3.551,2.0995 3.622,2.1325 3.692,2.1645 L3.692,2.0965 C3.962,1.9745 4.125,2.0385 4.181,2.2865 C4.24,2.3005 4.318,2.3195 4.395,2.3375 C4.392,2.3575 4.388,2.3775 4.384,2.3975 C4.25,2.3795 4.116,2.3615 3.944,2.3375 C3.95,2.4505 3.956,2.5535 3.965,2.7125 C3.829,2.7845 3.639,2.8855 3.437,2.9925" id="Fill-12" fill="#FFFFFF" mask="url(#mask-2)"></path>
                <path d="M10.0698,2.8201 C10.1788,2.9471 10.2918,3.0791 10.4428,3.2551 C10.3368,3.3021 10.2478,3.3411 10.1078,3.4031 C10.1518,3.5531 10.2028,3.7281 10.2538,3.9031 C10.2768,3.9021 10.2998,3.9001 10.3228,3.8981 C10.0158,4.2961 9.6498,4.0661 9.2268,3.2081 C9.2448,3.1711 9.2628,3.1331 9.2798,3.0951 C9.5098,3.2041 9.6688,3.1371 9.7558,2.8961 C9.7948,2.9661 9.8338,3.0331 9.8718,3.1021 L9.9368,3.0651 C9.8608,2.7351 9.7078,2.4471 9.3728,2.2621 C9.3948,2.2311 9.4158,2.2001 9.4368,2.1701 C9.8698,2.1611 10.0808,2.3781 10.0698,2.8201" id="Fill-14" fill="#FFFFFF" mask="url(#mask-2)"></path>
                <path d="M5.0464,6.3538 C5.0434,6.3058 5.0394,6.2568 5.0344,6.1868 C5.3194,6.0988 5.5204,5.9038 5.5374,5.5998 C5.6604,5.5518 5.7664,5.5098 5.8594,5.4728 C6.0664,5.9758 5.8804,6.4138 5.5134,6.7958 C5.4824,6.6458 5.4654,6.5678 5.4464,6.4778 C5.3584,6.5088 5.2794,6.5378 5.1984,6.5658 C5.0444,6.3458 4.9934,6.2748 5.0464,6.3538" id="Fill-16" fill="#FFFFFF" mask="url(#mask-2)"></path>
                <path d="M7.9858,0.1775 C7.9078,0.2795 7.8298,0.3805 7.7448,0.4905 C7.7848,0.5105 7.8518,0.5435 7.9188,0.5765 C7.9178,0.5915 7.9178,0.6065 7.9168,0.6205 C7.5748,0.5955 7.2338,0.5695 6.8918,0.5445 C7.2328,0.0705 7.5978,-0.0505 7.9898,0.1825 L7.9858,0.1775 Z" id="Fill-18" fill="#FFFFFF" mask="url(#mask-2)"></path>
                <path d="M8.6616,5.7508 C8.7026,6.0488 8.5556,6.3468 8.9206,6.5078 C8.8986,6.5288 8.8766,6.5488 8.8556,6.5698 C8.7366,6.5818 8.6166,6.5938 8.4976,6.6058 C8.4966,6.5908 8.4956,6.5748 8.4946,6.5588 C8.2646,6.7328 8.1226,6.6538 8.0706,6.3208 C8.2996,6.0998 8.4686,5.9378 8.6616,5.7508" id="Fill-20" fill="#FFFFFF" mask="url(#mask-2)"></path>
                <path d="M8.4424,8.0354 C8.4754,7.9954 8.5074,7.9554 8.5394,7.9164 C8.5924,8.1014 8.6464,8.2854 8.6994,8.4694 C8.6884,8.4724 8.6774,8.4734 8.6664,8.4764 C8.6894,8.5374 8.7124,8.5994 8.7344,8.6614 C8.5744,8.6614 8.5744,8.6614 8.6474,8.7984 C8.3774,8.8944 8.1004,8.9944 7.7994,9.1024 C8.0014,8.9344 8.1894,8.7774 8.3914,8.6074 C8.3414,8.5544 8.2914,8.4994 8.2244,8.4274 C8.2944,8.3024 8.3684,8.1684 8.4424,8.0354" id="Fill-22" fill="#FFFFFF" mask="url(#mask-2)"></path>
                <path d="M5.8598,13.1458 C5.8058,12.9888 5.7528,12.8318 5.6838,12.6288 C5.7768,12.5118 5.9148,12.4248 6.0798,12.5918 C6.2728,12.5038 6.4488,12.4248 6.6248,12.3448 C6.4608,12.6978 6.2058,12.9658 5.8548,13.1418 L5.8598,13.1458 Z" id="Fill-24" fill="#FFFFFF" mask="url(#mask-2)"></path>
                <path d="M5.3432,1.66 C5.3382,1.604 5.3322,1.548 5.3242,1.478 L5.5582,1.478 C5.5512,1.586 5.5452,1.681 5.5392,1.774 C5.3912,1.823 5.2502,1.869 5.1002,1.918 C4.9442,1.599 4.7362,2.002 4.5402,1.869 C4.3722,1.537 4.8382,1.631 4.8462,1.415 C5.0092,1.525 5.1482,1.62 5.2882,1.715 C5.3062,1.697 5.3252,1.679 5.3432,1.66" id="Fill-26" fill="#FFFFFF" mask="url(#mask-2)"></path>
                <path d="M0.3989,8.0823 C0.4919,8.1373 0.5849,8.1923 0.6779,8.2483 L0.6519,8.3383 C0.4779,8.3693 0.3049,8.3993 0.0819,8.4373 C0.0769,8.4443 0.0349,8.4993 -0.0481,8.6093 C-0.1011,8.4143 -0.1401,8.2663 -0.1801,8.1193 C-0.1551,8.1033 -0.1291,8.0893 -0.1041,8.0743 C-0.0801,8.1433 -0.0551,8.2113 -0.0411,8.2493 C0.1479,8.1773 0.2759,8.1273 0.4039,8.0793 L0.3989,8.0823 Z" id="Fill-28" fill="#FFFFFF" mask="url(#mask-2)"></path>
                <path d="M12.0698,13.1614 C11.6998,13.4054 11.3298,13.6494 10.9598,13.8934 C10.9538,13.8824 10.9468,13.8704 10.9398,13.8594 C11.2978,13.5174 11.5668,13.0724 12.0688,13.0724 C12.0688,13.1024 12.0698,13.1314 12.0698,13.1614" id="Fill-30" fill="#FFFFFF" mask="url(#mask-2)"></path>
                <path d="M9.1479,4.8509 C9.0069,4.6149 8.9019,4.4379 8.7859,4.2429 C8.7039,4.2909 8.6419,4.3269 8.5799,4.3629 C8.5679,4.3479 8.5569,4.3329 8.5449,4.3179 C8.6059,4.2679 8.6659,4.2189 8.7119,4.1819 C8.8319,4.2129 8.9339,4.2409 9.0369,4.2679 C9.0439,4.2369 9.0499,4.2059 9.0569,4.1749 C9.0119,4.1679 8.9659,4.1609 8.8559,4.1449 C8.9739,4.0929 9.0339,4.0659 9.0949,4.0389 C9.2669,4.2619 9.2849,4.5329 9.1479,4.8509" id="Fill-32" fill="#FFFFFF" mask="url(#mask-2)"></path>
                <path d="M0.4043,8.0789 C0.2313,8.0289 0.0633,7.9679 -0.1017,7.8949 C0.0563,7.7039 0.2633,7.5819 0.5173,7.5289 C0.5703,7.7379 0.5303,7.9229 0.3993,8.0819 L0.4043,8.0789" id="Fill-34" fill="#FFFFFF" mask="url(#mask-2)"></path>
                <path d="M-0.022,7.4368 C-0.106,7.5498 -0.151,7.6118 -0.224,7.7088 C-0.691,7.3318 -0.519,7.2298 -0.022,7.4368" id="Fill-36" fill="#FFFFFF" mask="url(#mask-2)"></path>
                <path d="M6.8051,5.1268 C6.8481,5.3248 6.8911,5.5218 6.9441,5.7678 C6.8001,5.7278 6.7221,5.7068 6.6471,5.6868 C6.6181,5.4898 6.6451,5.3008 6.7271,5.1218 C6.7531,5.1238 6.7791,5.1258 6.8051,5.1268" id="Fill-38" fill="#FFFFFF" mask="url(#mask-2)"></path>
                <path d="M7.9546,5.5115 C8.0136,5.5465 8.0796,5.5855 8.0996,5.5955 C8.1256,5.7225 8.1446,5.8115 8.1666,5.9135 C8.1176,5.9305 8.0376,5.9585 7.9416,5.9905 C7.8816,5.8845 7.8236,5.7835 7.7616,5.6745 C7.8106,5.6335 7.8716,5.5825 7.9546,5.5115" id="Fill-40" fill="#FFFFFF" mask="url(#mask-2)"></path>
                <path d="M11.9082,12.6644 C12.1172,12.6004 12.2822,12.2894 12.5382,12.4964 C12.3352,12.5934 12.1492,12.7604 11.9082,12.6644" id="Fill-42" fill="#FFFFFF" mask="url(#mask-2)"></path>
                <path d="M9.3647,10.6536 L9.8467,10.5846 C9.8557,10.6176 9.8647,10.6516 9.8737,10.6846 C9.7807,10.7546 9.6877,10.8246 9.5927,10.8966 C9.5167,10.8466 9.4477,10.8016 9.3777,10.7566 C9.3737,10.7226 9.3687,10.6876 9.3647,10.6536" id="Fill-44" fill="#FFFFFF" mask="url(#mask-2)"></path>
                <path d="M12.5918,12.7518 C12.7478,12.5728 12.9038,12.3948 13.0588,12.2148 C13.0888,12.2438 13.1188,12.2728 13.1488,12.3008 C13.0688,12.3758 12.9878,12.4508 12.9138,12.5208 C12.8448,12.6248 12.7738,12.7308 12.7038,12.8368 C12.6668,12.8088 12.6288,12.7808 12.5918,12.7518" id="Fill-46" fill="#FFFFFF" mask="url(#mask-2)"></path>
                <path d="M11.4746,5.6272 L11.4656,5.6302 L11.4746,5.6272 Z" id="Fill-48" fill="#FFFFFF" mask="url(#mask-2)"></path>
                <path d="M3.3296,17.5794 C3.5186,17.6094 3.7086,17.6384 3.9046,17.6694 C3.8976,17.8184 3.8946,17.9024 3.8906,17.9864 C3.8616,18.0154 3.8316,18.0434 3.8026,18.0724 C3.7086,17.9354 3.6156,17.7994 3.5206,17.6624 C3.4566,17.6354 3.3926,17.6074 3.3296,17.5794" id="Fill-50" fill="#FFFFFF" mask="url(#mask-2)"></path>
                <path d="M9.56,9.9827 C9.561,9.9997 9.562,10.0167 9.562,10.0227 C9.578,9.9947 9.578,9.9817 9.56,9.9827" id="Fill-52" fill="#FFFFFF" mask="url(#mask-2)"></path>
                <path d="M1.8427,14.7337 C1.6027,14.5967 1.3847,14.4727 1.1357,14.3327 C1.6547,14.1787 1.8897,14.3127 1.8427,14.7337" id="Fill-54" fill="#FFFFFF" mask="url(#mask-2)"></path>
                <path d="M11.9326,17.8841 C11.8356,17.9371 11.7196,18.0011 11.6026,18.0641 C11.5906,18.0411 11.5786,18.0181 11.5656,17.9951 C11.9706,17.5571 12.8156,17.8161 12.9746,18.1971 C12.5986,18.0841 12.2606,17.9821 11.9326,17.8841" id="Fill-56" fill="#FFFFFF" mask="url(#mask-2)"></path>
                <path d="M12.8969,19.3929 C12.9979,19.2389 13.0729,19.1249 13.1469,19.0109 C13.2009,19.1589 13.2529,19.3059 13.3229,19.4979 C13.1649,19.4589 13.0399,19.4279 12.8969,19.3929" id="Fill-58" fill="#FFFFFF" mask="url(#mask-2)"></path>
                <path d="M13.1162,18.5701 C13.3182,18.8421 13.0442,18.8641 12.9562,19.0191 C12.8912,18.9181 12.8452,18.8491 12.7922,18.7671 C12.9102,18.6951 13.0052,18.6371 13.1162,18.5701" id="Fill-60" fill="#FFFFFF" mask="url(#mask-2)"></path>
                <path d="M12.6372,19.4002 C12.4972,19.2582 12.3942,19.1522 12.2912,19.0472 C12.3012,19.0282 12.3102,19.0082 12.3192,18.9892 C12.4692,19.0452 12.6192,19.1012 12.7972,19.1682 C12.7412,19.2482 12.7002,19.3092 12.6372,19.4002" id="Fill-62" fill="#FFFFFF" mask="url(#mask-2)"></path>
            </g>
            <path d="M40.2300014,12.3670004 C40.2300014,5.16400038 34.6992808,-0.399999619 26.6952379,-0.399999619 L18.9512289,-0.399999619 C20.5144326,0.643000381 21.8186025,2.03600038 22.7537244,3.67500038 L26.6952379,3.67500038 C32.0439348,3.67500038 35.5363899,7.27500038 35.5363899,12.2950004 C35.5363899,17.3140004 32.0439348,20.9890004 26.6952379,20.9890004 L21.6745838,20.9890004 L21.6745838,17.2440004 C20.9374877,18.1610004 20.0783758,18.9750004 19.1062491,19.6450004 C18.5091713,20.0560004 17.8690879,20.4090004 17.2000008,20.7090004 L17.2000008,25.0620004 L26.6952379,25.0620004 C34.6992808,25.0620004 40.2300014,19.5700004 40.2300014,12.3670004 L40.2300014,12.3670004 Z" id="path10629-path" fill="#FFFFFF" transform="translate(28.715001, 12.331000) scale(1, -1) translate(-28.715001, -12.331000) "></path>
        </g>
    </g>
</svg>