<?xml version="1.0" encoding="UTF-8"?>
<svg width="95px" height="95px" viewBox="0 0 95 95" version="1.1" xmlns="http://www.w3.org/2000/svg" xmlns:xlink="http://www.w3.org/1999/xlink">
    <!-- Generator: Sketch 42 (36781) - http://www.bohemiancoding.com/sketch -->
    <title>mercedes-benz-logo-plain.svg</title>
    <desc>Created with Sketch.</desc>
    <defs></defs>
    <g id="Page-1" stroke="none" stroke-width="1" fill="none" fill-rule="evenodd">
        <g id="mercedes-benz-logo-plain.svg" fill="#FFFFFF">
            <path d="M54.1884766,43.1230469 L48.1016,4.5403 C71.4076,5.2883 90.0876,23.7703 90.0876,47.3273 C90.0876,54.5923 88.1386,61.6433 84.7406,68.0003 L54.1884766,43.1230469 Z M10.6786,69.3353 L47.2666016,55.5546875 L83.9446,69.3353 C76.2476,82.1023 62.2306,90.0083 47.3226,90.0083 C32.4886,90.0083 18.2846,82.1023 10.6786,69.3353 Z M46.6006,4.5933 L40.0249023,43.1608887 L9.9036,68.0003 C6.6026,61.5903 4.6096,54.5923 4.6096,47.3273 C4.6096,23.9843 23.3706,5.0213 46.6006,4.5933 Z M-0.0004,47.3273 C-0.0004,73.3413 21.3406,94.6553 47.3226,94.6553 C73.3256,94.6553 94.6446,73.3413 94.6446,47.3273 C94.6446,21.3133 73.3416,0.0003 47.3226,0.0003 C21.3186,0.0003 -0.0004,21.3133 -0.0004,47.3273 Z" id="Fill-1"></path>
        </g>
    </g>
</svg>