<?xml version="1.0" encoding="UTF-8"?>
<svg width="1658px" height="476px" viewBox="0 0 1658 476" version="1.1" xmlns="http://www.w3.org/2000/svg" xmlns:xlink="http://www.w3.org/1999/xlink">
    <!-- Generator: Sketch 42 (36781) - http://www.bohemiancoding.com/sketch -->
    <title>vamos-logo</title>
    <desc>Created with Sketch.</desc>
    <defs>
        <polygon id="path-1" points="147.45 202.9016 147.45 0.8936 0.6412 0.8936 0.6412 202.9016 147.45 202.9016"></polygon>
    </defs>
    <g id="Page-1" stroke="none" stroke-width="1" fill="none" fill-rule="evenodd">
        <g id="vamos-logo">
            <g id="Page-1">
                <path d="M208.64378,475.824176 C199.403406,475.824171 190.083967,468.383763 181.962913,457.999477 C106.937764,362.117699 64.5963246,297.434106 12.4177775,217.554101 C1.17202226,200.328181 -10.8190571,180.943164 22.1662951,162.876009 C58.1805334,143.146884 308.240444,36.2873162 432.27102,1.33029609 C435.330656,0.468560811 438.29731,0.0409878262 441.066285,0.033666371 L441.233946,0.033666371 C450.988304,0.0676148406 458.231544,5.33805541 458.231569,15.2030886 L458.231569,15.2031345 C458.231568,19.5925537 456.797579,24.8915835 453.512758,31.04369 C427.263877,80.2321548 310.237005,292.956304 232.215917,454.996948 C225.020565,469.936713 216.863496,475.824142 208.643862,475.824176 L208.643795,475.824176 L208.64378,475.824176 Z" id="Clip-2" fill="#FFFFFF"></path>
                <g id="Group-15" transform="translate(476.000000, 207.858000)">
                    <polygon id="Fill-4" fill="#FFFFFF" points="191.455 3.4985 211.393 3.4985 115.077 200.0105 92.534 200.0105 0.554 3.4985 20.495 3.4985 103.803 180.0715"></polygon>
                    <path d="M262.9227,137.0112 L319.2987,23.4392 L372.8817,137.0112 L262.9227,137.0112 Z M402.6087,200.0132 L422.5497,200.0132 L330.5687,3.5002 L308.0267,3.5002 L211.7087,200.0132 L231.6477,200.0132 L256.3207,152.3282 L379.1107,152.3282 L402.6087,200.0132 Z" id="Fill-6" fill="#FFFFFF"></path>
                    <polygon id="Fill-8" fill="#FFFFFF" points="686.9061 33.0219 593.3821 133.0139 588.7581 133.0139 495.2421 33.0219 495.2421 200.0099 475.5901 200.0099 475.5901 3.4989 493.7941 3.4989 591.0701 108.4019 688.6371 3.4989 706.5581 3.4989 706.5581 200.0099 686.9061 200.0099"></polygon>
                    <path d="M876.9618,184.4037 C924.6438,184.4037 959.0358,149.1497 959.0358,102.0427 C959.0358,54.3587 924.6438,19.3927 876.9618,19.3927 C830.1398,19.3927 795.4608,54.3587 795.4608,102.0427 C795.4608,149.1497 830.1398,184.4037 876.9618,184.4037 M876.9618,0.6047 C935.0478,0.6047 978.3958,43.9547 978.3958,102.0427 C978.3958,159.5537 935.0478,202.9017 876.9618,202.9017 C819.4498,202.9017 776.1008,159.5537 776.1008,102.0427 C776.1008,43.9547 819.4498,0.6047 876.9618,0.6047" id="Fill-10" fill="#FFFFFF"></path>
                    <g id="Group-14" transform="translate(1034.000000, 0.000000)">
                        <mask id="mask-2" fill="white">
                            <use xlink:href="#path-1"></use>
                        </mask>
                        <g id="Clip-13"></g>
                        <path d="M44.5712,102.9086 C17.4032,96.2626 0.6412,80.6566 0.6412,55.8046 C0.6412,27.1956 24.6332,0.8936 76.6482,0.8936 C103.2382,0.8936 129.5332,8.6956 143.9812,16.7886 L137.9162,35.2886 C124.6172,26.9046 98.3222,19.1026 76.0652,19.1026 C37.9192,19.1026 20.8702,36.1546 20.8702,54.6496 C20.8702,70.8316 32.1392,80.0816 52.3752,84.9906 L94.2752,95.3946 C128.0842,103.7796 147.4502,117.3606 147.4502,144.8156 C147.4502,180.3576 115.9522,202.9016 70.2872,202.9016 C42.5432,202.9016 16.2492,193.0736 3.8232,185.5626 L8.7352,167.0676 C21.1662,174.5816 45.1462,184.6966 70.5782,184.6966 C104.1022,184.6966 127.2202,169.6676 127.2202,146.2616 C127.2202,128.9226 113.0572,119.3816 86.4692,113.0246 L44.5712,102.9086 Z" id="Fill-12" fill="#FFFFFF" mask="url(#mask-2)"></path>
                    </g>
                </g>
            </g>
        </g>
    </g>
</svg>