<?xml version="1.0" encoding="UTF-8"?>
<svg width="50px" height="50px" viewBox="0 0 50 50" version="1.1" xmlns="http://www.w3.org/2000/svg" xmlns:xlink="http://www.w3.org/1999/xlink">
    <!-- Generator: Sketch 42 (36781) - http://www.bohemiancoding.com/sketch -->
    <title>vw-logo</title>
    <desc>Created with Sketch.</desc>
    <defs></defs>
    <g id="Page-1" stroke="none" stroke-width="1" fill="none" fill-rule="evenodd">
        <g id="vw-logo" fill="#FFFFFF">
            <g id="Group">
                <path d="M24.6299992,48.6599979 C37.6804873,48.6599979 48.2599983,38.080487 48.2599983,25.0299988 C48.2599983,11.9795106 37.6804873,1.39999962 24.6299992,1.39999962 C11.579511,1.39999962 1,11.9795106 1,25.0299988 C1,38.080487 11.579511,48.6599979 24.6299992,48.6599979 Z M24.6299992,49.6599979 C11.0272262,49.6599979 0,38.6327717 0,25.0299988 C0,11.4272259 11.0272262,0.399999619 24.6299992,0.399999619 C38.2327721,0.399999619 49.2599983,11.4272259 49.2599983,25.0299988 C49.2599983,38.6327717 38.2327721,49.6599979 24.6299992,49.6599979 Z" id="Oval" fill-rule="nonzero"></path>
                <path d="M7.86416996,25.055 C7.86416996,31.829 11.9076733,37.661 17.7193323,40.278 L8.6550287,19.969 C8.14182252,21.573 7.86416996,23.282 7.86416996,25.055 Z M11.0035484,15.318 L18.8680321,32.941 L22.1286955,25.644 L27.0673026,25.644 L30.3299708,32.937 L38.1924498,15.318 C36.8623236,13.472 35.1633305,11.908 33.2027226,10.734 L27.0673026,24.466 L22.1286955,24.466 L15.9962827,10.732 C14.0346723,11.907 12.3346769,13.471 11.0035484,15.318 Z M40.5409695,19.969 L31.4766659,40.278 C37.2883249,37.661 41.3318282,31.829 41.3318282,25.055 C41.3318282,23.282 41.055178,21.573 40.5409695,19.969 Z M29.5130508,41.018 L24.600505,30.011 L19.6879591,41.019 C21.2406083,41.494 22.8894836,41.749 24.5974979,41.749 C26.3085193,41.749 27.9583969,41.494 29.5130508,41.018 Z M19.6879591,9.091 L24.600505,20.098 L29.5120485,9.092 C27.9583969,8.616 26.3085193,8.36 24.5974979,8.36 C22.8894836,8.36 21.2406083,8.616 19.6879591,9.091 Z M4.388,25.055 C4.388,13.92 13.4362659,4.892 24.5974979,4.892 C35.7597322,4.892 44.8079982,13.92 44.8079982,25.055 C44.8079982,36.19 35.7597322,45.218 24.5974979,45.218 C13.4362659,45.218 4.388,36.19 4.388,25.055 L4.388,25.055 Z" id="Fill-9"></path>
            </g>
        </g>
    </g>
</svg>