<?xml version="1.0" encoding="UTF-8"?>
<svg width="384px" height="384px" viewBox="0 0 384 384" version="1.1" xmlns="http://www.w3.org/2000/svg" xmlns:xlink="http://www.w3.org/1999/xlink">
    <!-- Generator: Sketch 42 (36781) - http://www.bohemiancoding.com/sketch -->
    <title>wine-in-black</title>
    <desc>Created with Sketch.</desc>
    <defs></defs>
    <g id="Page-1" stroke="none" stroke-width="1" fill="none" fill-rule="evenodd">
        <g id="wine-in-black" fill="#FFFFFF">
            <g id="Group">
                <path d="M28,192 C28,282.570553 101.427714,356 192,356 C282.570553,356 356,282.572286 356,192 C356,101.429447 282.572286,28 192,28 C101.429447,28 28,101.427714 28,192 Z M0,192 C0,85.961328 85.9678867,0 192,0 C298.038672,0 384,85.9678867 384,192 C384,298.038672 298.032113,384 192,384 C85.961328,384 0,298.032113 0,192 Z" id="Mask" fill-rule="nonzero"></path>
                <path d="M297.386873,134.300591 C297.386873,134.300591 304.119965,116.444715 286.307194,111.817768 C271.877414,108.058056 266.04438,117.95199 263.714477,127.427354 L235.88317,238.470889 L211.233498,127.008996 C210.181306,122.160579 207.569953,118.20292 203.910435,115.447988 C200.250918,112.693056 195.542563,111.148268 190.319859,111.148268 L190.312476,111.148268 C179.863039,111.155262 171.495838,117.320851 169.406219,127.008996 L144.757218,238.470889 L116.91383,127.427354 C115.757157,122.685752 113.715863,117.845388 110.16105,114.664044 C106.605118,111.475707 101.539471,109.937912 94.3251398,111.817768 C76.5121458,116.444715 83.2497124,134.300591 83.2497124,134.300591 L122.429395,269.08944 C125.687321,279.668345 130.351377,287.728413 142.503159,287.728413 C148.476919,287.728413 158.306853,285.125437 158.306853,276.212759 C158.306853,270.961454 158.242643,257.451924 158.234365,253.837387 C158.222955,253.015082 158.250921,252.200831 158.274636,251.386368 C158.282914,250.97564 158.266582,250.564064 158.29947,250.161177 C158.676228,245.579372 160.436072,241.240656 162.891038,237.625908 C164.115949,235.814718 165.522079,234.192998 167.004724,232.793173 C168.490501,231.407548 170.057715,230.258653 171.628285,229.406041 C173.303336,228.492817 174.540775,227.358758 175.444189,226.164085 C177.195755,223.850188 177.714132,221.338344 177.871189,219.854381 C177.910789,219.413134 177.939426,219.04776 177.939426,218.819295 C177.939426,218.613719 177.927121,218.49991 177.927121,218.49991 C177.927121,218.49991 177.946809,214.967815 177.955087,209.534036 C177.971643,202.27296 177.995358,191.648701 178.011019,181.518672 L178.011019,174.067279 L176.267731,174.067279 C175.179295,174.067279 174.29982,173.230139 174.29982,172.2101 L174.29982,171.015216 L174.29982,165.763911 C174.29982,165.75607 174.307874,165.74844 174.307874,165.740598 C174.315481,165.322028 174.524443,164.964284 174.777927,164.66037 C175.139024,164.226329 175.64174,163.898891 176.260348,163.898891 L178.011019,163.898891 L202.621315,163.898891 L204.371986,163.898891 C204.994845,163.898891 205.497561,164.226329 205.85038,164.66037 C206.107891,164.964284 206.321104,165.322028 206.328487,165.740598 C206.328487,165.74844 206.336765,165.75607 206.336765,165.763911 L206.336765,171.015216 L206.336765,172.2101 C206.328487,173.230139 205.449012,174.067279 204.371986,174.067279 L202.621315,174.067279 C202.621315,176.472308 202.621315,178.984152 202.628698,181.518672 C202.636976,186.579872 202.64503,191.770351 202.653308,196.603085 C202.677247,208.681425 202.701186,218.49991 202.701186,218.49991 C202.701186,218.49991 202.692908,218.613719 202.692908,218.819295 C202.701186,219.04776 202.717518,219.413134 202.765172,219.854381 C202.890236,221.087202 203.319794,223.020889 204.452528,224.976194 C205.39308,226.582443 206.782655,228.195897 209.004049,229.406041 C215.287001,232.823692 221.574427,240.997568 222.341142,250.161177 C222.373135,250.564064 222.34942,250.97564 222.357698,251.386368 C222.381413,252.200831 222.405352,253.015082 222.405352,253.837387 C222.389691,257.451924 222.329732,270.961454 222.329732,276.212759 C222.329732,285.125437 232.155415,287.728413 238.137453,287.728413 C250.280957,287.728413 254.953068,279.668345 258.202939,269.08944 L297.386873,134.300591 Z" id="Combined-Shape"></path>
            </g>
        </g>
    </g>
</svg>